<?xml version="1.0" encoding="UTF-8" standalone="no"?>
<!DOCTYPE svg PUBLIC "-//W3C//DTD SVG 1.1//EN" "http://www.w3.org/Graphics/SVG/1.1/DTD/svg11.dtd">
<svg width="100%" height="100%" viewBox="0 0 982 175" version="1.1" xmlns="http://www.w3.org/2000/svg" xmlns:xlink="http://www.w3.org/1999/xlink" xml:space="preserve" xmlns:serif="http://www.serif.com/" style="fill-rule:evenodd;clip-rule:evenodd;stroke-linejoin:round;stroke-miterlimit:2;">
    <g transform="matrix(1,0,0,1,-7.690365,-740.876562)">
        <g id="wordmarkfull" transform="matrix(1,0,0,1,3,3)">
            <g transform="matrix(0.555071,0,0,0.565789,-43.8506,451.184211)">
                <path d="M193.865,663.496C191.61,663.496 187.923,660.862 182.804,655.593C177.685,650.324 171.525,642.753 164.323,632.88C157.121,623.007 149.039,611.266 140.078,597.657L154.331,593.355C166.003,609.989 175.932,623.267 184.118,633.189C192.304,643.112 199.557,650.231 205.877,654.547C212.197,658.864 218.275,661.022 224.112,661.022C224.469,661.022 224.647,661.434 224.647,662.259C224.647,663.084 224.469,663.496 224.112,663.496L193.865,663.496ZM143.359,534.002C155.094,534.002 164.083,536.436 170.325,541.306C176.567,546.175 179.688,552.696 179.688,560.869C179.688,568.526 177.453,575.388 172.983,581.454C168.513,587.519 162.67,592.271 155.454,595.707C148.238,599.144 140.444,600.862 132.071,600.862C130.495,600.862 128.787,600.825 126.948,600.75C125.109,600.674 123.425,600.568 121.897,600.431L121.897,646.794C121.897,650.78 122.286,653.805 123.065,655.867C123.843,657.929 125.457,659.303 127.905,659.991C130.354,660.678 134.02,661.022 138.902,661.022C139.259,661.022 139.438,661.434 139.438,662.259C139.438,663.084 139.259,663.496 138.902,663.496C135.412,663.496 131.561,663.427 127.347,663.29C123.134,663.152 118.479,663.084 113.385,663.084C108.649,663.084 104.1,663.152 99.739,663.29C95.378,663.427 91.453,663.496 87.966,663.496C87.622,663.496 87.45,663.084 87.45,662.259C87.45,661.434 87.622,661.022 87.966,661.022C92.848,661.022 96.514,660.678 98.962,659.991C101.411,659.303 103.079,657.929 103.964,655.867C104.85,653.805 105.293,650.78 105.293,646.794L105.293,551.322C105.293,547.336 104.885,544.346 104.069,542.353C103.254,540.359 101.641,538.985 99.23,538.229C96.82,537.473 93.173,537.095 88.291,537.095C87.934,537.095 87.755,536.682 87.755,535.857C87.755,535.033 87.934,534.62 88.291,534.62C91.702,534.62 95.553,534.723 99.844,534.929C104.136,535.136 108.649,535.239 113.385,535.239C117.855,535.239 122.916,535.033 128.567,534.62C134.218,534.208 139.149,534.002 143.359,534.002ZM162.433,567.458C162.433,559.725 161.38,553.691 159.275,549.354C157.17,545.017 154.203,541.945 150.374,540.136C146.544,538.327 142.006,537.423 136.758,537.423C131.462,537.423 127.661,538.379 125.355,540.291C123.05,542.202 121.897,546.017 121.897,551.735L121.897,595.224C123.859,595.422 125.98,595.589 128.262,595.727C130.543,595.864 132.563,595.933 134.321,595.933C144.668,595.933 151.94,593.567 156.137,588.835C160.334,584.103 162.433,576.977 162.433,567.458Z" style="fill:currentColor;fill-rule:nonzero;"/>
                <path d="M265.422,665.971C256.776,665.971 249.497,664.096 243.584,660.347C237.672,656.598 233.204,651.683 230.18,645.603C227.157,639.524 225.645,633.053 225.645,626.193C225.645,617.932 227.638,610.484 231.625,603.847C235.612,597.211 241.044,591.919 247.92,587.97C254.795,584.021 262.472,582.047 270.949,582.047C279.063,582.047 285.318,584.054 289.715,588.068C294.111,592.083 296.309,597.942 296.309,605.647C296.309,607.434 296.15,608.833 295.831,609.843C295.513,610.854 294.863,611.359 293.882,611.359L279.367,611.359C279.879,603.146 278.781,596.894 276.073,592.605C273.364,588.315 269.225,586.171 263.655,586.171C256.818,586.171 251.464,589.046 247.593,594.796C243.722,600.546 241.786,608.321 241.786,618.122C241.786,625.943 243.048,632.834 245.57,638.797C248.092,644.76 251.805,649.416 256.709,652.767C261.614,656.118 267.601,657.793 274.67,657.793C279.259,657.793 283.067,657.165 286.094,655.907C289.121,654.649 292.232,653.127 295.426,651.34C295.706,651.065 296.091,651.221 296.582,651.809C297.072,652.396 297.177,652.896 296.897,653.308C291.866,657.866 286.769,661.116 281.606,663.058C276.444,665 271.049,665.971 265.422,665.971ZM236.975,611.566L236.765,608.44L283.833,607.616L283.833,611.359L236.975,611.566Z" style="fill:currentColor;fill-rule:nonzero;"/>
                <path d="M341.09,584.047C341.09,585.319 341.02,588.011 340.879,592.125C340.739,596.238 340.669,601.68 340.669,608.45L340.669,673.394C340.669,682.467 339.686,690.062 337.72,696.179C335.754,702.296 332.459,707.348 327.835,711.335C323.211,715.321 316.829,718.758 308.688,721.645C308.408,721.782 308.093,721.473 307.743,720.717C307.392,719.961 307.389,719.514 307.733,719.377C314.675,716.49 319.513,711.816 322.245,705.355C324.978,698.894 326.344,689.821 326.344,678.136L326.344,608.75C326.344,603.985 325.885,600.5 324.968,598.295C324.05,596.089 322.361,594.986 319.9,594.986C318.766,594.986 317.457,595.211 315.971,595.661C314.486,596.111 312.779,596.793 310.853,597.708C310.292,597.846 309.821,597.521 309.439,596.734C309.057,595.946 309.115,595.446 309.615,595.234L338.229,582.159C338.509,582.022 338.72,581.953 338.86,581.953C339.407,581.953 339.916,582.183 340.385,582.644C340.855,583.105 341.09,583.573 341.09,584.047ZM331.956,559.045C328.727,559.045 326.187,558.172 324.337,556.426C322.487,554.68 321.562,552.229 321.562,549.074C321.562,546.105 322.487,543.763 324.337,542.048C326.187,540.333 328.727,539.476 331.956,539.476C335.109,539.476 337.544,540.333 339.26,542.048C340.977,543.763 341.835,546.105 341.835,549.074C341.835,555.721 338.542,559.045 331.956,559.045Z" style="fill:currentColor;fill-rule:nonzero;"/>
                <path d="M398.018,665.403C390.85,665.403 385.193,663.168 381.049,658.697C376.904,654.226 374.832,647.984 374.832,639.97L374.832,608.75C374.832,603.607 374.364,599.88 373.43,597.568C372.495,595.256 370.868,594.1 368.549,594.1C366.699,594.1 364.524,594.694 362.024,595.881C361.463,596.096 361.008,595.791 360.658,594.966C360.307,594.142 360.381,593.66 360.878,593.523L385.689,582.253C386.033,582.115 386.345,582.047 386.625,582.047C387.094,582.047 387.617,582.261 388.195,582.691C388.773,583.12 389.062,583.573 389.062,584.047L389.062,632.112C389.062,640.065 390.517,645.954 393.428,649.779C396.339,653.603 400.737,655.515 406.622,655.515C411.612,655.515 416.601,654.079 421.589,651.206C426.578,648.333 430.802,644.498 434.261,639.699L435.407,642.061C429.487,649.78 423.469,655.601 417.353,659.522C411.237,663.443 404.792,665.403 398.018,665.403ZM444.498,584.047L444.498,640.824C444.498,645.498 445.03,648.854 446.096,650.892C447.161,652.93 448.937,653.95 451.424,653.95C452.714,653.95 454.19,653.705 455.854,653.217C457.518,652.728 459.492,652.065 461.776,651.227C462.413,650.952 462.903,651.193 463.247,651.949C463.591,652.705 463.514,653.22 463.017,653.495L437.017,665.61C436.736,665.747 436.424,665.816 436.081,665.816C434.912,665.816 433.67,664.268 432.356,661.172C431.043,658.075 430.386,653.63 430.386,647.834L430.386,608.75C430.386,603.607 429.899,599.88 428.925,597.568C427.95,595.256 426.304,594.1 423.985,594.1C422.135,594.1 419.928,594.694 417.364,595.881C416.867,596.096 416.463,595.791 416.151,594.966C415.839,594.142 415.932,593.66 416.429,593.523L441.24,582.253C441.52,582.115 441.794,582.047 442.061,582.047C442.53,582.047 443.053,582.261 443.631,582.691C444.209,583.12 444.498,583.573 444.498,584.047Z" style="fill:currentColor;fill-rule:nonzero;"/>
                <path d="M553.005,583.902C553.285,583.902 553.425,584.315 553.425,585.14C553.425,585.964 553.285,586.377 553.005,586.377C549.327,586.377 546.162,587.587 543.511,590.006C540.859,592.426 538.247,596.608 535.675,602.554L509.592,663.383C509.389,663.996 508.653,664.302 507.385,664.302C506.118,664.302 505.312,663.996 504.968,663.383L474.659,601.017C471.732,594.769 469.263,590.767 467.252,589.011C465.241,587.255 462.848,586.377 460.074,586.377C459.654,586.377 459.444,585.964 459.444,585.14C459.444,584.315 459.654,583.902 460.074,583.902C462.224,583.902 464.613,583.971 467.24,584.109C469.868,584.246 472.887,584.315 476.298,584.315C481.428,584.315 485.832,584.246 489.51,584.109C493.188,583.971 496.586,583.902 499.704,583.902C500.124,583.902 500.334,584.315 500.334,585.14C500.334,585.964 500.124,586.377 499.704,586.377C495.36,586.377 491.939,586.908 489.441,587.97C486.943,589.032 486.496,591.182 488.101,594.419L514.479,647.599L506.998,659.053L531.064,601.781C533.214,596.598 533.095,592.735 530.706,590.191C528.317,587.648 523.703,586.377 516.863,586.377C516.583,586.377 516.443,585.964 516.443,585.14C516.443,584.315 516.583,583.902 516.863,583.902C520.226,583.902 523.414,583.971 526.427,584.109C529.439,584.246 533.328,584.315 538.092,584.315C541.225,584.315 543.781,584.246 545.76,584.109C547.74,583.971 550.154,583.902 553.005,583.902Z" style="fill:currentColor;fill-rule:nonzero;"/>
                <path d="M599.687,665.971C591.041,665.971 583.762,664.096 577.85,660.347C571.937,656.598 567.469,651.683 564.446,645.603C561.422,639.524 559.91,633.053 559.91,626.193C559.91,617.932 561.904,610.484 565.891,603.847C569.878,597.211 575.309,591.919 582.185,587.97C589.061,584.021 596.737,582.047 605.215,582.047C613.329,582.047 619.584,584.054 623.98,588.068C628.376,592.083 630.575,597.942 630.575,605.647C630.575,607.434 630.415,608.833 630.097,609.843C629.778,610.854 629.128,611.359 628.148,611.359L613.632,611.359C614.144,603.146 613.046,596.894 610.338,592.605C607.63,588.315 603.49,586.171 597.921,586.171C591.083,586.171 585.729,589.046 581.858,594.796C577.987,600.546 576.052,608.321 576.052,618.122C576.052,625.943 577.313,632.834 579.835,638.797C582.357,644.76 586.07,649.416 590.975,652.767C595.879,656.118 601.866,657.793 608.936,657.793C613.525,657.793 617.332,657.165 620.359,655.907C623.386,654.649 626.497,653.127 629.691,651.34C629.971,651.065 630.357,651.221 630.847,651.809C631.338,652.396 631.443,652.896 631.162,653.308C626.131,657.866 621.034,661.116 615.872,663.058C610.709,665 605.314,665.971 599.687,665.971ZM571.24,611.566L571.03,608.44L618.098,607.616L618.098,611.359L571.24,611.566Z" style="fill:currentColor;fill-rule:nonzero;"/>
                <path d="M704.505,663.496C704.084,663.496 703.874,663.084 703.874,662.259C703.874,661.434 704.084,661.022 704.505,661.022C709.619,661.022 712.986,660.082 714.605,658.203C716.224,656.323 717.034,652.52 717.034,646.794L717.034,614.491C717.034,606.539 715.532,600.701 712.529,596.975C709.527,593.25 704.813,591.387 698.39,591.387C693.569,591.387 688.643,592.796 683.613,595.614C678.583,598.432 674.351,602.309 670.918,607.245L669.982,604.771C675.812,596.989 681.771,591.134 687.859,587.206C693.947,583.279 700.326,581.315 706.997,581.315C714.767,581.315 720.77,583.513 725.004,587.909C729.238,592.305 731.356,598.547 731.356,606.636L731.356,646.794C731.356,652.52 732.161,656.323 733.773,658.203C735.384,660.082 738.786,661.022 743.98,661.022C744.4,661.022 744.61,661.434 744.61,662.259C744.61,663.084 744.4,663.496 743.98,663.496C741.407,663.496 738.415,663.427 735.003,663.29C731.59,663.152 728.007,663.084 724.252,663.084C720.561,663.084 716.99,663.152 713.539,663.29C710.089,663.427 707.077,663.496 704.505,663.496ZM647.965,663.496C647.545,663.496 647.335,663.084 647.335,662.259C647.335,661.434 647.545,661.022 647.965,661.022C653.08,661.022 656.447,660.082 658.066,658.203C659.685,656.323 660.494,652.52 660.494,646.794L660.494,606.668C660.494,602.179 659.965,598.9 658.906,596.832C657.848,594.763 656.012,593.729 653.4,593.729C652.063,593.729 650.476,593.988 648.64,594.507C646.804,595.026 644.719,595.766 642.386,596.729C641.825,596.928 641.386,596.654 641.067,595.904C640.748,595.154 640.806,594.673 641.239,594.46L667.22,582.253C667.752,582.053 668.165,581.953 668.458,581.953C669.693,581.953 671.061,583.471 672.563,586.506C674.065,589.541 674.816,593.925 674.816,599.657L674.816,646.794C674.816,652.52 675.622,656.323 677.233,658.203C678.845,660.082 682.247,661.022 687.44,661.022C687.861,661.022 688.071,661.434 688.071,662.259C688.071,663.084 687.861,663.496 687.44,663.496C684.868,663.496 681.875,663.427 678.463,663.29C675.051,663.152 671.468,663.084 667.713,663.084C664.021,663.084 660.45,663.152 657,663.29C653.549,663.427 650.538,663.496 647.965,663.496Z" style="fill:currentColor;fill-rule:nonzero;"/>
                <path d="M814.601,664.733C814.04,665.008 813.416,665.146 812.729,665.146C810.668,665.146 808.686,663.609 806.781,660.537C804.876,657.464 803.924,653.024 803.924,647.216L803.924,609.555C803.924,600.97 802.857,594.857 800.724,591.218C798.59,587.578 795.586,585.758 791.71,585.758C788.207,585.758 785.426,586.672 783.367,588.5C781.308,590.328 779.809,592.473 778.869,594.934C777.93,597.396 777.274,599.595 776.902,601.533C776.561,604.207 775.724,606.441 774.393,608.234C773.062,610.028 770.838,610.924 767.72,610.924C764.924,610.924 762.89,610.244 761.618,608.883C760.346,607.523 759.71,605.969 759.71,604.223C759.71,601.454 761.082,598.743 763.825,596.089C766.568,593.435 770.04,591.031 774.241,588.877C778.441,586.723 782.816,585.011 787.365,583.743C791.915,582.474 796.005,581.84 799.635,581.84C805.38,581.84 809.899,583.646 813.192,587.258C816.485,590.87 818.131,596.24 818.131,603.369L818.131,641.226C818.131,645.741 818.79,649.118 820.106,651.356C821.423,653.594 823.491,654.713 826.309,654.713C828.656,654.713 831.689,653.929 835.409,652.361C836.046,652.086 836.52,652.327 836.832,653.083C837.144,653.839 836.95,654.355 836.25,654.629L814.601,664.733ZM775.979,664.94C770.353,664.94 766.11,663.562 763.252,660.806C760.394,658.05 758.964,654.631 758.964,650.547C758.964,647.22 759.859,644.411 761.649,642.119C763.439,639.827 766.077,637.789 769.562,636.005C773.048,634.221 777.233,632.46 782.117,630.72L806.026,621.956L806.633,624.824L787.602,632.34C785.478,633.131 783.52,634.086 781.727,635.206C779.934,636.326 778.504,637.67 777.439,639.237C776.374,640.804 775.842,642.715 775.842,644.97C775.842,648.242 776.936,650.944 779.126,653.078C781.315,655.212 784.024,656.279 787.254,656.279C788.607,656.279 789.982,656.085 791.38,655.696C792.778,655.307 794.447,654.519 796.387,653.331L808.863,645.753L809.188,648.598L793.898,658.567C790.583,660.828 787.563,662.456 784.838,663.449C782.114,664.443 779.161,664.94 775.979,664.94Z" style="fill:currentColor;fill-rule:nonzero;"/>
                <path d="M875.753,665.971C872.39,665.971 869.107,665.439 865.905,664.377C862.703,663.315 860.082,661.504 858.04,658.944C855.998,656.383 854.978,652.855 854.978,648.36L854.978,600.769C854.978,597.579 854.704,595.179 854.157,593.568C853.609,591.957 852.565,590.864 851.023,590.29C849.482,589.715 847.188,589.428 844.14,589.428C843.658,589.428 843.417,588.923 843.417,587.912C843.417,586.901 843.658,586.396 844.14,586.396C850.286,586.274 855.273,584.785 859.101,581.929C862.929,579.073 865.348,575.198 866.357,570.303C866.484,569.828 867.041,569.591 868.029,569.591C869.016,569.591 869.51,569.828 869.51,570.303L869.51,641.442C869.51,647.093 870.946,651.22 873.819,653.821C876.691,656.422 880.614,657.722 885.589,657.722C889.12,657.722 892.322,657.107 895.195,655.876C898.067,654.646 900.446,653.313 902.331,651.878C902.828,651.541 903.334,651.681 903.848,652.3C904.363,652.919 904.34,653.434 903.779,653.847C898.595,658.102 893.836,661.186 889.503,663.1C885.171,665.014 880.587,665.971 875.753,665.971ZM897.382,594.077C891.79,592.765 886.413,591.906 881.249,591.501C876.085,591.096 870.607,590.894 864.813,590.894L864.813,586.1C870.403,586.1 875.85,585.893 881.154,585.481C886.457,585.069 892.108,584.588 898.105,584.038C898.464,584.038 898.799,584.515 899.109,585.47C899.42,586.425 899.576,587.558 899.576,588.87C899.576,590.02 899.35,591.209 898.899,592.439C898.448,593.668 897.943,594.215 897.382,594.077Z" style="fill:currentColor;fill-rule:nonzero;"/>
                <path d="M954.551,665.971C945.905,665.971 938.625,664.096 932.713,660.347C926.8,656.598 922.332,651.683 919.309,645.603C916.285,639.524 914.773,633.053 914.773,626.193C914.773,617.932 916.767,610.484 920.754,603.847C924.741,597.211 930.172,591.919 937.048,587.97C943.924,584.021 951.6,582.047 960.078,582.047C968.192,582.047 974.447,584.054 978.843,588.068C983.24,592.083 985.438,597.942 985.438,605.647C985.438,607.434 985.278,608.833 984.96,609.843C984.641,610.854 983.992,611.359 983.011,611.359L968.495,611.359C969.007,603.146 967.909,596.894 965.201,592.605C962.493,588.315 958.354,586.171 952.784,586.171C945.946,586.171 940.592,589.046 936.721,594.796C932.85,600.546 930.915,608.321 930.915,618.122C930.915,625.943 932.176,632.834 934.698,638.797C937.22,644.76 940.934,649.416 945.838,652.767C950.742,656.118 956.729,657.793 963.799,657.793C968.388,657.793 972.196,657.165 975.222,655.907C978.249,654.649 981.36,653.127 984.554,651.34C984.835,651.065 985.22,651.221 985.71,651.809C986.201,652.396 986.306,652.896 986.026,653.308C980.994,657.866 975.897,661.116 970.735,663.058C965.572,665 960.177,665.971 954.551,665.971ZM926.104,611.566L925.893,608.44L972.961,607.616L972.961,611.359L926.104,611.566Z" style="fill:currentColor;fill-rule:nonzero;"/>
            </g>
            <g transform="matrix(0.608,0,0,0.172,690,742)">
                <path d="M104.866,491.764C102.807,491.764 99.441,483.098 94.768,465.766C90.094,448.434 84.47,423.53 77.895,391.053C71.32,358.576 63.942,319.954 55.761,275.186L68.773,261.037C79.429,315.753 88.493,359.431 95.967,392.07C103.441,424.71 110.062,448.128 115.832,462.327C121.601,476.525 127.15,483.624 132.479,483.624C132.805,483.624 132.968,484.981 132.968,487.694C132.968,490.407 132.805,491.764 132.479,491.764L104.866,491.764ZM58.756,65.795C69.47,65.795 77.676,73.803 83.374,89.821C89.073,105.839 91.922,127.29 91.922,154.174C91.922,179.363 89.882,201.934 85.802,221.887C81.721,241.84 76.387,257.469 69.799,268.774C63.21,280.079 56.095,285.732 48.451,285.732C47.012,285.732 45.453,285.608 43.774,285.361C42.095,285.113 40.558,284.764 39.163,284.311L39.163,436.822C39.163,449.935 39.518,459.884 40.229,466.667C40.939,473.45 42.412,477.972 44.648,480.233C46.884,482.494 50.23,483.624 54.688,483.624C55.013,483.624 55.176,484.981 55.176,487.694C55.176,490.407 55.013,491.764 54.688,491.764C51.501,491.764 47.985,491.537 44.138,491.085C40.292,490.633 36.043,490.407 31.391,490.407C27.068,490.407 22.915,490.633 18.934,491.085C14.952,491.537 11.369,491.764 8.185,491.764C7.871,491.764 7.714,490.407 7.714,487.694C7.714,484.981 7.871,483.624 8.185,483.624C12.642,483.624 15.989,482.494 18.225,480.233C20.46,477.972 21.982,473.45 22.791,466.667C23.599,459.884 24.004,449.935 24.004,436.822L24.004,122.771C24.004,109.658 23.631,99.822 22.887,93.266C22.142,86.709 20.67,82.187 18.469,79.7C16.268,77.213 12.939,75.969 8.482,75.969C8.156,75.969 7.993,74.612 7.993,71.899C7.993,69.186 8.156,67.829 8.482,67.829C11.596,67.829 15.112,68.169 19.03,68.847C22.947,69.525 27.068,69.864 31.391,69.864C35.473,69.864 40.093,69.186 45.252,67.829C50.411,66.473 54.912,65.795 58.756,65.795ZM76.17,175.848C76.17,150.412 75.209,130.561 73.287,116.296C71.365,102.03 68.656,91.923 65.16,85.974C61.664,80.025 57.521,77.05 52.73,77.05C47.895,77.05 44.425,80.194 42.32,86.483C40.215,92.771 39.163,105.319 39.163,124.128L39.163,267.184C40.954,267.835 42.891,268.386 44.973,268.838C47.056,269.29 48.9,269.516 50.505,269.516C59.951,269.516 66.59,261.733 70.422,246.168C74.254,230.602 76.17,207.162 76.17,175.848Z" style="fill:currentColor;fill-rule:nonzero;"/>
                <path d="M170.193,499.903C162.3,499.903 155.654,493.737 150.257,481.404C144.859,469.071 140.78,452.905 138.019,432.906C135.259,412.907 133.879,391.623 133.879,369.056C133.879,341.882 135.699,317.38 139.339,295.551C142.979,273.722 147.937,256.312 154.214,243.322C160.492,230.332 167.5,223.837 175.239,223.837C182.647,223.837 188.358,230.44 192.371,243.646C196.385,256.851 198.392,276.126 198.392,301.47C198.392,307.349 198.246,311.95 197.955,315.274C197.665,318.599 197.071,320.261 196.176,320.261L182.924,320.261C183.391,293.242 182.389,272.678 179.917,258.568C177.444,244.458 173.665,237.403 168.58,237.403C162.338,237.403 157.45,246.86 153.916,265.775C150.382,284.689 148.615,310.267 148.615,342.507C148.615,368.233 149.766,390.903 152.069,410.517C154.372,430.131 157.762,445.449 162.239,456.471C166.716,467.493 172.182,473.004 178.636,473.004C182.826,473.004 186.302,470.936 189.066,466.799C191.829,462.662 194.669,457.655 197.585,451.776C197.841,450.872 198.193,451.386 198.64,453.318C199.088,455.25 199.184,456.895 198.928,458.252C194.335,473.245 189.682,483.935 184.969,490.322C180.255,496.709 175.33,499.903 170.193,499.903ZM144.223,320.939L144.031,310.659L187.001,307.946L187.001,320.261L144.223,320.939Z" style="fill:currentColor;fill-rule:nonzero;"/>
                <path d="M211.861,491.764C211.419,491.764 211.198,490.407 211.198,487.694C211.198,484.981 211.419,483.624 211.861,483.624C217.144,483.624 220.577,480.685 222.16,474.806C223.743,468.928 224.534,456.266 224.534,436.822L224.534,284.205C224.534,273.508 224.203,265.662 223.542,260.666C222.88,255.671 221.601,252.382 219.704,250.799C217.807,249.217 214.937,248.425 211.093,248.425C210.709,248.425 210.518,246.763 210.518,243.439C210.518,240.115 210.709,238.452 211.093,238.452C216.204,238.452 219.644,236.243 221.413,231.823C223.182,227.404 224.131,219.541 224.258,208.236C224.826,158.043 227.029,117.684 230.867,87.161C234.704,56.638 240.018,34.367 246.808,20.349C253.598,6.331 261.595,-0.678 270.8,-0.678C278.571,-0.678 284.743,4.319 289.317,14.313C293.89,24.307 296.177,36.472 296.177,50.809C296.177,57.704 295.568,63.357 294.349,67.766C293.131,72.175 291.415,74.379 289.2,74.379C286.437,74.379 284.383,71.235 283.037,64.947C281.691,58.658 280.396,51.303 279.151,42.881C277.907,34.459 276.217,27.105 274.08,20.82C271.943,14.536 268.732,11.393 264.447,11.393C259.509,11.393 254.993,17.685 250.896,30.269C246.8,42.853 243.579,62.546 241.234,89.349C238.89,116.153 237.717,151.034 237.717,193.992L237.717,436.822C237.717,449.935 238.119,459.884 238.921,466.667C239.724,473.45 241.446,477.972 244.089,480.233C246.731,482.494 250.723,483.624 256.064,483.624C256.433,483.624 256.618,484.981 256.618,487.694C256.618,490.407 256.433,491.764 256.064,491.764C251.726,491.764 247.52,491.537 243.446,491.085C239.371,490.633 235.201,490.407 230.935,490.407C227.436,490.407 224.033,490.633 220.727,491.085C217.42,491.537 214.465,491.764 211.861,491.764ZM260.678,264.535C255.899,259.716 251.326,256.268 246.961,254.191C242.596,252.114 237.995,251.075 233.16,251.075L233.16,237.17C237.811,237.17 242.398,236.492 246.919,235.135C251.44,233.778 256.218,232.196 261.253,230.387C261.637,230.387 261.957,232.083 262.213,235.474C262.469,238.866 262.597,242.596 262.597,246.666C262.597,251.188 262.355,255.41 261.873,259.331C261.39,263.252 260.992,264.987 260.678,264.535ZM272.881,491.764C272.555,491.764 272.392,490.407 272.392,487.694C272.392,484.981 272.555,483.624 272.881,483.624C277.55,483.624 280.637,480.533 282.144,474.35C283.65,468.168 284.403,455.659 284.403,436.822L284.403,311.676C284.403,288.48 283.419,274.282 281.452,269.082C279.486,263.881 275.727,265.973 270.176,275.356C269.664,275.808 269.249,274.739 268.929,272.15C268.609,269.56 268.647,267.916 269.043,267.216L295.274,223.837C295.844,222.728 296.418,223.106 296.997,224.971C297.575,226.837 297.865,228.652 297.865,230.419C297.865,234.602 297.786,243.458 297.629,256.989C297.472,270.519 297.394,288.42 297.394,310.691L297.394,436.822C297.394,455.659 298.147,468.168 299.653,474.35C301.159,480.533 304.283,483.624 309.024,483.624C309.394,483.624 309.579,484.981 309.579,487.694C309.579,490.407 309.394,491.764 309.024,491.764C306.605,491.764 303.871,491.537 300.819,491.085C297.768,490.633 294.494,490.407 290.996,490.407C287.568,490.407 284.279,490.633 281.129,491.085C277.979,491.537 275.229,491.764 272.881,491.764Z" style="fill:currentColor;fill-rule:nonzero;"/>
                <path d="M375.05,491.764C374.666,491.764 374.474,490.407 374.474,487.694C374.474,484.981 374.666,483.624 375.05,483.624C379.719,483.624 382.793,480.533 384.271,474.35C385.749,468.168 386.488,455.659 386.488,436.822L386.488,330.563C386.488,304.406 385.117,285.2 382.376,272.945C379.634,260.689 375.331,254.562 369.467,254.562C365.066,254.562 360.569,259.197 355.976,268.467C351.384,277.737 347.521,290.49 344.387,306.727L343.532,298.587C348.855,272.989 354.295,253.73 359.853,240.81C365.411,227.891 371.235,221.431 377.325,221.431C384.419,221.431 389.899,228.661 393.764,243.121C397.63,257.581 399.563,278.115 399.563,304.724L399.563,436.822C399.563,455.659 400.299,468.168 401.77,474.35C403.241,480.533 406.347,483.624 411.088,483.624C411.472,483.624 411.664,484.981 411.664,487.694C411.664,490.407 411.472,491.764 411.088,491.764C408.74,491.764 406.008,491.537 402.893,491.085C399.777,490.633 396.506,490.407 393.078,490.407C389.708,490.407 386.448,490.633 383.298,491.085C380.148,491.537 377.398,491.764 375.05,491.764ZM323.432,491.764C323.049,491.764 322.857,490.407 322.857,487.694C322.857,484.981 323.049,483.624 323.432,483.624C328.102,483.624 331.175,480.533 332.653,474.35C334.131,468.168 334.87,455.659 334.87,436.822L334.87,304.83C334.87,290.063 334.387,279.277 333.421,272.473C332.454,265.669 330.779,262.267 328.394,262.267C327.173,262.267 325.724,263.12 324.048,264.826C322.372,266.533 320.469,268.969 318.338,272.134C317.827,272.791 317.425,271.887 317.135,269.421C316.844,266.955 316.896,265.372 317.292,264.673L341.011,224.516C341.497,223.858 341.873,223.53 342.141,223.53C343.269,223.53 344.518,228.522 345.889,238.505C347.26,248.489 347.946,262.91 347.946,281.768L347.946,436.822C347.946,455.659 348.681,468.168 350.152,474.35C351.624,480.533 354.73,483.624 359.471,483.624C359.855,483.624 360.047,484.981 360.047,487.694C360.047,490.407 359.855,491.764 359.471,491.764C357.122,491.764 354.39,491.537 351.275,491.085C348.16,490.633 344.889,490.407 341.461,490.407C338.091,490.407 334.831,490.633 331.68,491.085C328.53,491.537 325.781,491.764 323.432,491.764Z" style="fill:currentColor;fill-rule:nonzero;"/>
                <path d="M457.965,499.903C450.071,499.903 443.426,493.737 438.028,481.404C432.63,469.071 428.551,452.905 425.791,432.906C423.031,412.907 421.65,391.623 421.65,369.056C421.65,341.882 423.47,317.38 427.11,295.551C430.75,273.722 435.708,256.312 441.986,243.322C448.263,230.332 455.271,223.837 463.011,223.837C470.418,223.837 476.129,230.44 480.143,243.646C484.156,256.851 486.163,276.126 486.163,301.47C486.163,307.349 486.018,311.95 485.727,315.274C485.436,318.599 484.843,320.261 483.947,320.261L470.695,320.261C471.163,293.242 470.161,272.678 467.688,258.568C465.215,244.458 461.437,237.403 456.352,237.403C450.109,237.403 445.221,246.86 441.687,265.775C438.154,284.689 436.387,310.267 436.387,342.507C436.387,368.233 437.538,390.903 439.841,410.517C442.143,430.131 445.533,445.449 450.01,456.471C454.488,467.493 459.954,473.004 466.408,473.004C470.597,473.004 474.074,470.936 476.837,466.799C479.6,462.662 482.44,457.655 485.356,451.776C485.612,450.872 485.964,451.386 486.412,453.318C486.86,455.25 486.956,456.895 486.7,458.252C482.106,473.245 477.453,483.935 472.74,490.322C468.027,496.709 463.102,499.903 457.965,499.903ZM431.994,320.939L431.802,310.659L474.773,307.946L474.773,320.261L431.994,320.939Z" style="fill:currentColor;fill-rule:nonzero;"/>
            </g>
            <g transform="matrix(0.812081,0,0,0.956522,182.496644,247.913043)">
                <path d="M496.353,619.68C488.81,619.68 482.079,618.413 476.159,615.88C470.238,613.348 465.314,609.912 461.386,605.573C457.458,601.235 454.772,596.347 453.328,590.911C451.884,585.474 451.867,579.905 453.278,574.202C454.755,568.452 457.577,563.382 461.743,558.991C465.908,554.6 470.876,551.15 476.645,548.641C482.414,546.132 488.312,544.877 494.338,544.877C497.472,544.877 500.477,545.237 503.353,545.955C506.228,546.674 508.796,547.914 511.055,549.675L499.383,558.888C497.567,554.979 495.268,552.393 492.488,551.13C489.708,549.868 487.135,549.236 484.771,549.236C481.613,549.236 478.747,550.151 476.173,551.981C473.599,553.81 471.428,556.229 469.662,559.237C467.896,562.245 466.569,565.561 465.682,569.184C464.37,575.666 464.52,581.569 466.134,586.892C467.747,592.216 470.369,596.799 473.998,600.641C477.628,604.483 481.938,607.446 486.928,609.529C491.918,611.613 497.168,612.655 502.679,612.655C510.185,612.655 516.974,610.994 523.048,607.672C529.121,604.35 534.05,599.476 537.833,593.049C541.617,586.622 543.727,578.719 544.164,569.341L547.619,570.282C546.689,581.223 543.902,590.364 539.256,597.705C534.61,605.046 528.593,610.544 521.205,614.198C513.817,617.852 505.532,619.68 496.353,619.68ZM461.157,587.414L459.079,585.65C463.235,582.654 467.966,579.391 473.274,575.86C478.581,572.329 483.978,568.659 489.464,564.848C494.949,561.038 500.001,557.199 504.618,553.331C509.236,549.463 512.975,545.667 515.835,541.946C518.695,538.224 520.126,534.697 520.126,531.366C520.126,529.287 519.707,527.71 518.869,526.636C518.031,525.562 517.07,524.709 515.987,524.076C514.904,523.443 513.943,522.719 513.107,521.903C512.27,521.088 511.851,519.87 511.851,518.25C511.851,516.42 512.493,514.961 513.776,513.87C515.059,512.78 516.717,512.235 518.749,512.235C521.822,512.235 524.22,513.331 525.944,515.524C527.668,517.717 528.53,520.586 528.53,524.131C528.53,528.804 527.07,533.4 524.152,537.918C521.233,542.437 517.357,546.868 512.524,551.212C507.69,555.557 502.312,559.808 496.389,563.966C490.466,568.124 484.448,572.156 478.338,576.061C472.227,579.966 466.5,583.75 461.157,587.414ZM511.277,582.724C509.88,582.724 508.626,582.338 507.515,581.564C506.404,580.791 505.848,579.398 505.848,577.385C505.848,574.479 506.941,571.723 509.127,569.118C511.312,566.512 514.138,564.386 517.605,562.74C521.071,561.093 524.633,560.27 528.29,560.27C531.602,560.27 535.009,560.871 538.513,562.073C542.017,563.276 545.52,564.672 549.023,566.263C552.525,567.854 555.895,569.251 559.131,570.453C562.368,571.656 565.34,572.257 568.049,572.257C569.717,572.257 571.041,571.981 572.019,571.43C572.998,570.878 573.487,570.19 573.487,569.365C573.487,568.366 573.113,567.497 572.365,566.761C571.618,566.024 570.853,565.214 570.071,564.33C569.289,563.446 568.898,562.388 568.898,561.155C568.898,559.911 569.364,558.958 570.298,558.294C571.231,557.63 572.54,557.298 574.226,557.298C575.68,557.298 576.918,557.644 577.94,558.337C578.962,559.029 579.473,560.434 579.473,562.551C579.473,565.248 578.578,567.911 576.79,570.54C575.001,573.169 572.62,575.345 569.647,577.068C566.673,578.79 563.419,579.652 559.885,579.652C556.694,579.652 553.348,579.013 549.845,577.734C546.342,576.456 542.775,574.969 539.142,573.272C535.509,571.576 531.955,570.089 528.479,568.812C525.004,567.534 521.726,566.896 518.648,566.896C516.689,566.896 515.217,567.223 514.232,567.879C513.247,568.535 512.754,569.305 512.754,570.189C512.754,571.234 513.053,572.201 513.651,573.09C514.248,573.978 514.845,574.867 515.443,575.756C516.04,576.644 516.339,577.606 516.339,578.64C516.339,579.514 515.979,580.413 515.258,581.337C514.538,582.262 513.21,582.724 511.277,582.724Z" style="fill:rgb(176,141,87);fill-rule:nonzero;"/>
            </g>
            <g transform="matrix(2.910112,0,0,1,-928.955056,496)">
                <path d="M409.15,407.283L406.842,390.5L404.568,407.283L402.661,391.667L401.086,391.667L404.365,416.25L406.842,399.75L409.319,416.25L412.597,391.667L411.023,391.667L409.15,407.283Z" style="fill:currentColor;fill-rule:nonzero;"/>
                <path d="M416.701,415L420.744,415L420.744,411.542L416.701,411.542L416.701,415ZM416.701,395.125L420.744,395.125L420.744,391.667L416.701,391.667L416.701,395.125ZM416.701,404.208L420.515,404.208L420.515,400.792L416.701,400.792L416.701,404.208ZM415.862,391.667L415.862,415L417.194,415L417.194,391.667L415.862,391.667Z" style="fill:currentColor;fill-rule:nonzero;"/>
                <path d="M424.696,391.667L424.696,415L429.235,415L429.235,411.458L426.056,411.458L426.056,391.667L424.696,391.667Z" style="fill:currentColor;fill-rule:nonzero;"/>
                <path d="M432.499,391.667L432.499,415L437.038,415L437.038,411.458L433.86,411.458L433.86,391.667L432.499,391.667Z" style="fill:currentColor;fill-rule:nonzero;"/>
                <path d="M446.159,391.667L446.159,407.333L440.303,390.5L440.303,415L441.634,415L441.634,399.333L447.49,416.167L447.49,391.667L446.159,391.667Z" style="fill:currentColor;fill-rule:nonzero;"/>
                <path d="M452.395,415L456.439,415L456.439,411.542L452.395,411.542L452.395,415ZM452.395,395.125L456.439,395.125L456.439,391.667L452.395,391.667L452.395,395.125ZM452.395,404.208L456.21,404.208L456.21,400.792L452.395,400.792L452.395,404.208ZM451.556,391.667L451.556,415L452.888,415L452.888,391.667L451.556,391.667Z" style="fill:currentColor;fill-rule:nonzero;"/>
                <path d="M460.923,407.483L459.915,409.533C460.093,410.594 460.331,411.582 460.63,412.496C460.928,413.41 461.278,414.139 461.679,414.683C462.08,415.228 462.515,415.5 462.985,415.5C463.329,415.5 463.659,415.342 463.977,415.025C464.295,414.708 464.58,414.253 464.832,413.658C465.084,413.064 465.283,412.335 465.429,411.471C465.575,410.607 465.648,409.631 465.648,408.542C465.648,407.514 465.588,406.619 465.468,405.858C465.347,405.097 465.189,404.438 464.992,403.879C464.796,403.321 464.577,402.851 464.337,402.471C464.096,402.09 463.856,401.775 463.615,401.525C463.187,401.092 462.839,400.664 462.571,400.242C462.303,399.819 462.106,399.367 461.981,398.883C461.856,398.4 461.794,397.858 461.794,397.258C461.794,396.597 461.882,396.015 462.059,395.512C462.235,395.01 462.509,394.758 462.879,394.758C463.15,394.758 463.386,394.911 463.588,395.217C463.789,395.522 463.966,395.924 464.118,396.421C464.269,396.918 464.398,397.453 464.503,398.025L465.597,396.225C465.463,395.408 465.275,394.621 465.034,393.863C464.792,393.104 464.496,392.479 464.145,391.988C463.793,391.496 463.379,391.25 462.902,391.25C462.425,391.25 461.996,391.512 461.616,392.038C461.236,392.562 460.937,393.297 460.717,394.242C460.498,395.186 460.388,396.283 460.388,397.533C460.388,398.628 460.459,399.558 460.603,400.325C460.746,401.092 460.928,401.738 461.151,402.262C461.373,402.788 461.607,403.218 461.852,403.554C462.098,403.89 462.319,404.161 462.515,404.367C462.853,404.722 463.151,405.082 463.407,405.446C463.664,405.81 463.865,406.253 464.009,406.775C464.153,407.297 464.225,407.989 464.225,408.85C464.225,409.778 464.11,410.529 463.881,411.104C463.652,411.679 463.352,411.967 462.982,411.967C462.682,411.967 462.409,411.781 462.162,411.408C461.915,411.036 461.69,410.512 461.489,409.837C461.287,409.163 461.099,408.378 460.923,407.483Z" style="fill:currentColor;fill-rule:nonzero;"/>
                <path d="M469.846,407.483L468.838,409.533C469.016,410.594 469.254,411.582 469.553,412.496C469.851,413.41 470.201,414.139 470.602,414.683C471.003,415.228 471.438,415.5 471.908,415.5C472.252,415.5 472.582,415.342 472.9,415.025C473.218,414.708 473.503,414.253 473.755,413.658C474.007,413.064 474.206,412.335 474.352,411.471C474.498,410.607 474.571,409.631 474.571,408.542C474.571,407.514 474.511,406.619 474.391,405.858C474.27,405.097 474.112,404.438 473.915,403.879C473.719,403.321 473.5,402.851 473.26,402.471C473.019,402.09 472.778,401.775 472.538,401.525C472.11,401.092 471.762,400.664 471.494,400.242C471.226,399.819 471.029,399.367 470.904,398.883C470.779,398.4 470.717,397.858 470.717,397.258C470.717,396.597 470.805,396.015 470.982,395.512C471.158,395.01 471.432,394.758 471.802,394.758C472.073,394.758 472.309,394.911 472.511,395.217C472.712,395.522 472.889,395.924 473.04,396.421C473.192,396.918 473.321,397.453 473.426,398.025L474.519,396.225C474.386,395.408 474.198,394.621 473.957,393.863C473.715,393.104 473.419,392.479 473.068,391.988C472.716,391.496 472.302,391.25 471.825,391.25C471.348,391.25 470.919,391.512 470.539,392.038C470.159,392.562 469.86,393.297 469.64,394.242C469.42,395.186 469.311,396.283 469.311,397.533C469.311,398.628 469.382,399.558 469.525,400.325C469.669,401.092 469.851,401.738 470.074,402.262C470.296,402.788 470.53,403.218 470.775,403.554C471.021,403.89 471.242,404.161 471.438,404.367C471.776,404.722 472.074,405.082 472.33,405.446C472.587,405.81 472.788,406.253 472.932,406.775C473.076,407.297 473.148,407.989 473.148,408.85C473.148,409.778 473.033,410.529 472.804,411.104C472.575,411.679 472.275,411.967 471.905,411.967C471.605,411.967 471.332,411.781 471.085,411.408C470.837,411.036 470.613,410.512 470.412,409.837C470.21,409.163 470.022,408.378 469.846,407.483Z" style="fill:currentColor;fill-rule:nonzero;"/>
                <path d="M483.819,409L488.058,409L487.8,405.683L484.077,405.683L483.819,409ZM485.916,398.267L487.193,406.925L487.219,407.9L488.307,415L489.839,415L485.916,390.375L481.992,415L483.524,415L484.636,407.692L484.656,406.825L485.916,398.267Z" style="fill:currentColor;fill-rule:nonzero;"/>
                <path d="M498.902,391.667L498.902,407.333L493.046,390.5L493.046,415L494.377,415L494.377,399.333L500.233,416.167L500.233,391.667L498.902,391.667Z" style="fill:currentColor;fill-rule:nonzero;"/>
                <path d="M504.3,391.667L504.3,415L505.686,415L505.686,391.667L504.3,391.667ZM506.891,415C507.708,415 508.427,414.517 509.046,413.55C509.666,412.583 510.149,411.228 510.495,409.483C510.842,407.739 511.015,405.689 511.015,403.333C511.015,400.972 510.842,398.921 510.495,397.179C510.149,395.438 509.666,394.083 509.046,393.117C508.427,392.15 507.708,391.667 506.891,391.667L505.139,391.667L505.139,395.375L506.863,395.375C507.256,395.375 507.622,395.543 507.959,395.879C508.297,396.215 508.59,396.715 508.839,397.379C509.087,398.043 509.28,398.872 509.418,399.867C509.557,400.861 509.626,402.017 509.626,403.333C509.626,404.65 509.557,405.806 509.418,406.8C509.28,407.794 509.087,408.624 508.839,409.288C508.59,409.951 508.297,410.451 507.959,410.788C507.622,411.124 507.256,411.292 506.863,411.292L505.139,411.292L505.139,415L506.891,415Z" style="fill:currentColor;fill-rule:nonzero;"/>
                <path d="M520.733,400.792L523.176,412.833L525.618,400.792L526.168,415L527.571,415L526.469,390.5L523.176,406.325L519.882,390.5L518.78,415L520.183,415L520.733,400.792Z" style="fill:currentColor;fill-rule:nonzero;"/>
                <path d="M532.018,415L536.062,415L536.062,411.542L532.018,411.542L532.018,415ZM532.018,395.125L536.062,395.125L536.062,391.667L532.018,391.667L532.018,395.125ZM532.018,404.208L535.833,404.208L535.833,400.792L532.018,400.792L532.018,404.208ZM531.179,391.667L531.179,415L532.511,415L532.511,391.667L531.179,391.667Z" style="fill:currentColor;fill-rule:nonzero;"/>
                <path d="M540.013,391.667L540.013,415L541.399,415L541.399,391.667L540.013,391.667ZM542.605,415C543.422,415 544.14,414.517 544.76,413.55C545.379,412.583 545.862,411.228 546.209,409.483C546.555,407.739 546.728,405.689 546.728,403.333C546.728,400.972 546.555,398.921 546.209,397.179C545.862,395.438 545.379,394.083 544.76,393.117C544.14,392.15 543.422,391.667 542.605,391.667L540.852,391.667L540.852,395.375L542.576,395.375C542.97,395.375 543.335,395.543 543.673,395.879C544.011,396.215 544.304,396.715 544.552,397.379C544.8,398.043 544.994,398.872 545.132,399.867C545.27,400.861 545.34,402.017 545.34,403.333C545.34,404.65 545.27,405.806 545.132,406.8C544.994,407.794 544.8,408.624 544.552,409.288C544.304,409.951 544.011,410.451 543.673,410.788C543.335,411.124 542.97,411.292 542.576,411.292L540.852,411.292L540.852,415L542.605,415Z" style="fill:currentColor;fill-rule:nonzero;"/>
                <path d="M555.484,407.483L554.476,409.533C554.654,410.594 554.892,411.582 555.191,412.496C555.49,413.41 555.839,414.139 556.24,414.683C556.641,415.228 557.076,415.5 557.546,415.5C557.89,415.5 558.22,415.342 558.538,415.025C558.856,414.708 559.141,414.253 559.393,413.658C559.645,413.064 559.844,412.335 559.99,411.471C560.136,410.607 560.209,409.631 560.209,408.542C560.209,407.514 560.149,406.619 560.029,405.858C559.909,405.097 559.75,404.438 559.553,403.879C559.357,403.321 559.138,402.851 558.898,402.471C558.657,402.09 558.417,401.775 558.176,401.525C557.748,401.092 557.401,400.664 557.132,400.242C556.864,399.819 556.667,399.367 556.542,398.883C556.417,398.4 556.355,397.858 556.355,397.258C556.355,396.597 556.443,396.015 556.62,395.512C556.796,395.01 557.07,394.758 557.44,394.758C557.711,394.758 557.947,394.911 558.149,395.217C558.35,395.522 558.527,395.924 558.679,396.421C558.83,396.918 558.959,397.453 559.064,398.025L560.158,396.225C560.024,395.408 559.836,394.621 559.595,393.863C559.353,393.104 559.057,392.479 558.706,391.988C558.355,391.496 557.94,391.25 557.463,391.25C556.986,391.25 556.557,391.512 556.177,392.038C555.797,392.562 555.498,393.297 555.278,394.242C555.059,395.186 554.949,396.283 554.949,397.533C554.949,398.628 555.02,399.558 555.164,400.325C555.307,401.092 555.49,401.738 555.712,402.262C555.934,402.788 556.168,403.218 556.414,403.554C556.659,403.89 556.88,404.161 557.076,404.367C557.414,404.722 557.712,405.082 557.968,405.446C558.225,405.81 558.426,406.253 558.57,406.775C558.714,407.297 558.786,407.989 558.786,408.85C558.786,409.778 558.671,410.529 558.442,411.104C558.213,411.679 557.914,411.967 557.543,411.967C557.243,411.967 556.97,411.781 556.723,411.408C556.476,411.036 556.251,410.512 556.05,409.837C555.848,409.163 555.66,408.378 555.484,407.483Z" style="fill:currentColor;fill-rule:nonzero;"/>
                <path d="M563.875,391.667L563.875,415L565.235,415L565.235,391.667L563.875,391.667ZM564.685,395.125L566.294,395.125C566.762,395.125 567.138,395.443 567.421,396.079C567.705,396.715 567.846,397.661 567.846,398.917C567.846,400.156 567.705,401.097 567.421,401.742C567.138,402.386 566.762,402.708 566.294,402.708L564.685,402.708L564.685,406.167L566.294,406.167C566.88,406.167 567.388,405.874 567.818,405.288C568.247,404.701 568.581,403.863 568.82,402.771C569.059,401.679 569.178,400.394 569.178,398.917C569.178,397.417 569.059,396.126 568.82,395.046C568.581,393.965 568.247,393.132 567.818,392.546C567.388,391.96 566.88,391.667 566.294,391.667L564.685,391.667L564.685,395.125Z" style="fill:currentColor;fill-rule:nonzero;"/>
                <path d="M572.952,409L577.19,409L576.932,405.683L573.21,405.683L572.952,409ZM575.048,398.267L576.325,406.925L576.351,407.9L577.439,415L578.971,415L575.048,390.375L571.125,415L572.657,415L573.768,407.692L573.788,406.825L575.048,398.267Z" style="fill:currentColor;fill-rule:nonzero;"/>
            </g>
        </g>
    </g>
</svg>
