<?xml version="1.0" encoding="UTF-8" standalone="no"?>
<!DOCTYPE svg PUBLIC "-//W3C//DTD SVG 1.1//EN" "http://www.w3.org/Graphics/SVG/1.1/DTD/svg11.dtd">
<svg width="100%" height="100%" viewBox="0 0 982 125" version="1.1" xmlns="http://www.w3.org/2000/svg" xmlns:xlink="http://www.w3.org/1999/xlink" xml:space="preserve" xmlns:serif="http://www.serif.com/" style="fill-rule:evenodd;clip-rule:evenodd;stroke-linejoin:round;stroke-miterlimit:2;">
    <g transform="matrix(1,0,0,1,-4.690365,-552.876562)">
        <g id="wordmark" transform="matrix(1.010132,0,0,1.013376,76.749747,97.35177)">
            <g transform="matrix(0.549503,0,0,0.603766,-119.390714,145.721004)">
                <path d="M193.865,652.244C191.61,652.244 187.923,649.808 182.804,644.935C177.685,640.063 171.525,633.062 164.323,623.932C157.121,614.802 149.039,603.945 140.078,591.36L154.331,587.382C166.003,602.764 175.932,615.043 184.118,624.218C192.304,633.394 199.557,639.977 205.877,643.968C212.197,647.96 218.275,649.956 224.112,649.956C224.469,649.956 224.647,650.337 224.647,651.1C224.647,651.862 224.469,652.244 224.112,652.244L193.865,652.244ZM143.359,532.496C155.094,532.496 164.083,534.747 170.325,539.25C176.567,543.753 179.688,549.783 179.688,557.341C179.688,564.422 177.453,570.767 172.983,576.377C168.513,581.986 162.67,586.379 155.454,589.557C148.238,592.735 140.444,594.324 132.071,594.324C130.495,594.324 128.787,594.29 126.948,594.22C125.109,594.151 123.425,594.052 121.897,593.925L121.897,636.799C121.897,640.485 122.286,643.282 123.065,645.189C123.843,647.095 125.457,648.367 127.905,649.002C130.354,649.638 134.02,649.956 138.902,649.956C139.259,649.956 139.438,650.337 139.438,651.1C139.438,651.862 139.259,652.244 138.902,652.244C135.412,652.244 131.561,652.18 127.347,652.053C123.134,651.926 118.479,651.862 113.385,651.862C108.649,651.862 104.1,651.926 99.739,652.053C95.378,652.18 91.453,652.244 87.966,652.244C87.622,652.244 87.45,651.862 87.45,651.1C87.45,650.337 87.622,649.956 87.966,649.956C92.848,649.956 96.514,649.638 98.962,649.002C101.411,648.367 103.079,647.095 103.964,645.189C104.85,643.282 105.293,640.485 105.293,636.799L105.293,548.513C105.293,544.827 104.885,542.062 104.069,540.219C103.254,538.375 101.641,537.104 99.23,536.405C96.82,535.706 93.173,535.356 88.291,535.356C87.934,535.356 87.755,534.975 87.755,534.212C87.755,533.449 87.934,533.068 88.291,533.068C91.702,533.068 95.553,533.163 99.844,533.354C104.136,533.545 108.649,533.64 113.385,533.64C117.855,533.64 122.916,533.449 128.567,533.068C134.218,532.687 139.149,532.496 143.359,532.496ZM162.433,563.434C162.433,556.284 161.38,550.703 159.275,546.693C157.17,542.683 154.203,539.841 150.374,538.169C146.544,536.496 142.006,535.66 136.758,535.66C131.462,535.66 127.661,536.544 125.355,538.312C123.05,540.08 121.897,543.607 121.897,548.895L121.897,589.11C123.859,589.293 125.98,589.448 128.262,589.575C130.543,589.702 132.563,589.766 134.321,589.766C144.668,589.766 151.94,587.578 156.137,583.202C160.334,578.827 162.433,572.237 162.433,563.434Z" style="fill:rgb(61,53,48);fill-rule:nonzero;"/>
                <path d="M265.422,654.532C256.776,654.532 249.497,652.798 243.584,649.331C237.672,645.864 233.204,641.32 230.18,635.698C227.157,630.076 225.645,624.092 225.645,617.748C225.645,610.109 227.638,603.221 231.625,597.085C235.612,590.948 241.044,586.054 247.92,582.402C254.795,578.751 262.472,576.925 270.949,576.925C279.063,576.925 285.318,578.781 289.715,582.493C294.111,586.206 296.309,591.624 296.309,598.749C296.309,600.401 296.15,601.695 295.831,602.629C295.513,603.564 294.863,604.031 293.882,604.031L279.367,604.031C279.879,596.436 278.781,590.655 276.073,586.688C273.364,582.722 269.225,580.738 263.655,580.738C256.818,580.738 251.464,583.397 247.593,588.714C243.722,594.031 241.786,601.222 241.786,610.285C241.786,617.517 243.048,623.89 245.57,629.404C248.092,634.918 251.805,639.224 256.709,642.322C261.614,645.421 267.601,646.97 274.67,646.97C279.259,646.97 283.067,646.389 286.094,645.226C289.121,644.063 292.232,642.655 295.426,641.002C295.706,640.748 296.091,640.893 296.582,641.436C297.072,641.979 297.177,642.442 296.897,642.823C291.866,647.038 286.769,650.043 281.606,651.839C276.444,653.634 271.049,654.532 265.422,654.532ZM236.975,604.222L236.765,601.332L283.833,600.569L283.833,604.031L236.975,604.222Z" style="fill:rgb(61,53,48);fill-rule:nonzero;"/>
                <path d="M341.09,578.775C341.09,579.951 341.02,582.441 340.879,586.244C340.739,590.048 340.669,595.08 340.669,601.341L340.669,661.396C340.669,669.786 339.686,676.81 337.72,682.467C335.754,688.124 332.459,692.795 327.835,696.482C323.211,700.168 316.829,703.346 308.688,706.016C308.408,706.143 308.093,705.857 307.743,705.158C307.392,704.459 307.389,704.045 307.733,703.918C314.675,701.249 319.513,696.927 322.245,690.952C324.978,684.977 326.344,676.587 326.344,665.782L326.344,601.618C326.344,597.212 325.885,593.99 324.968,591.95C324.05,589.91 322.361,588.89 319.9,588.89C318.766,588.89 317.457,589.098 315.971,589.514C314.486,589.93 312.779,590.561 310.853,591.408C310.292,591.535 309.821,591.234 309.439,590.506C309.057,589.778 309.115,589.316 309.615,589.119L338.229,577.029C338.509,576.902 338.72,576.838 338.86,576.838C339.407,576.838 339.916,577.051 340.385,577.477C340.855,577.903 341.09,578.336 341.09,578.775ZM331.956,555.655C328.727,555.655 326.187,554.847 324.337,553.233C322.487,551.618 321.562,549.351 321.562,546.434C321.562,543.689 322.487,541.523 324.337,539.937C326.187,538.351 328.727,537.558 331.956,537.558C335.109,537.558 337.544,538.351 339.26,539.937C340.977,541.523 341.835,543.689 341.835,546.434C341.835,552.581 338.542,555.655 331.956,555.655Z" style="fill:rgb(61,53,48);fill-rule:nonzero;"/>
                <path d="M398.018,654.008C390.85,654.008 385.193,651.94 381.049,647.806C376.904,643.672 374.832,637.899 374.832,630.488L374.832,601.618C374.832,596.863 374.364,593.416 373.43,591.278C372.495,589.14 370.868,588.071 368.549,588.071C366.699,588.071 364.524,588.62 362.024,589.718C361.463,589.917 361.008,589.635 360.658,588.872C360.307,588.109 360.381,587.664 360.878,587.537L385.689,577.115C386.033,576.988 386.345,576.925 386.625,576.925C387.094,576.925 387.617,577.123 388.195,577.521C388.773,577.918 389.062,578.336 389.062,578.775L389.062,623.221C389.062,630.577 390.517,636.022 393.428,639.559C396.339,643.096 400.737,644.864 406.622,644.864C411.612,644.864 416.601,643.535 421.589,640.879C426.578,638.222 430.802,634.675 434.261,630.238L435.407,632.422C429.487,639.56 423.469,644.943 417.353,648.569C411.237,652.195 404.792,654.008 398.018,654.008ZM444.498,578.775L444.498,631.278C444.498,635.6 445.03,638.703 446.096,640.588C447.161,642.473 448.937,643.416 451.424,643.416C452.714,643.416 454.19,643.19 455.854,642.738C457.518,642.286 459.492,641.673 461.776,640.898C462.413,640.644 462.903,640.866 463.247,641.566C463.591,642.265 463.514,642.741 463.017,642.996L437.017,654.198C436.736,654.325 436.424,654.389 436.081,654.389C434.912,654.389 433.67,652.957 432.356,650.094C431.043,647.231 430.386,643.12 430.386,637.761L430.386,601.618C430.386,596.863 429.899,593.416 428.925,591.278C427.95,589.14 426.304,588.071 423.985,588.071C422.135,588.071 419.928,588.62 417.364,589.718C416.867,589.917 416.463,589.635 416.151,588.872C415.839,588.109 415.932,587.664 416.429,587.537L441.24,577.115C441.52,576.988 441.794,576.925 442.061,576.925C442.53,576.925 443.053,577.123 443.631,577.521C444.209,577.918 444.498,578.336 444.498,578.775Z" style="fill:rgb(61,53,48);fill-rule:nonzero;"/>
                <path d="M553.005,578.641C553.285,578.641 553.425,579.022 553.425,579.785C553.425,580.548 553.285,580.929 553.005,580.929C549.327,580.929 546.162,582.048 543.511,584.285C540.859,586.523 538.247,590.391 535.675,595.889L509.592,652.139C509.389,652.706 508.653,652.989 507.385,652.989C506.118,652.989 505.312,652.706 504.968,652.139L474.659,594.467C471.732,588.689 469.263,584.988 467.252,583.365C465.241,581.741 462.848,580.929 460.074,580.929C459.654,580.929 459.444,580.548 459.444,579.785C459.444,579.022 459.654,578.641 460.074,578.641C462.224,578.641 464.613,578.704 467.24,578.832C469.868,578.959 472.887,579.022 476.298,579.022C481.428,579.022 485.832,578.959 489.51,578.832C493.188,578.704 496.586,578.641 499.704,578.641C500.124,578.641 500.334,579.022 500.334,579.785C500.334,580.548 500.124,580.929 499.704,580.929C495.36,580.929 491.939,581.42 489.441,582.402C486.943,583.385 486.496,585.372 488.101,588.366L514.479,637.543L506.998,648.135L531.064,595.173C533.214,590.381 533.095,586.808 530.706,584.457C528.317,582.105 523.703,580.929 516.863,580.929C516.583,580.929 516.443,580.548 516.443,579.785C516.443,579.022 516.583,578.641 516.863,578.641C520.226,578.641 523.414,578.704 526.427,578.832C529.439,578.959 533.328,579.022 538.092,579.022C541.225,579.022 543.781,578.959 545.76,578.832C547.74,578.704 550.154,578.641 553.005,578.641Z" style="fill:rgb(61,53,48);fill-rule:nonzero;"/>
                <path d="M599.687,654.532C591.041,654.532 583.762,652.798 577.85,649.331C571.937,645.864 567.469,641.32 564.446,635.698C561.422,630.076 559.91,624.092 559.91,617.748C559.91,610.109 561.904,603.221 565.891,597.085C569.878,590.948 575.309,586.054 582.185,582.402C589.061,578.751 596.737,576.925 605.215,576.925C613.329,576.925 619.584,578.781 623.98,582.493C628.376,586.206 630.575,591.624 630.575,598.749C630.575,600.401 630.415,601.695 630.097,602.629C629.778,603.564 629.128,604.031 628.148,604.031L613.632,604.031C614.144,596.436 613.046,590.655 610.338,586.688C607.63,582.722 603.49,580.738 597.921,580.738C591.083,580.738 585.729,583.397 581.858,588.714C577.987,594.031 576.052,601.222 576.052,610.285C576.052,617.517 577.313,623.89 579.835,629.404C582.357,634.918 586.07,639.224 590.975,642.322C595.879,645.421 601.866,646.97 608.936,646.97C613.525,646.97 617.332,646.389 620.359,645.226C623.386,644.063 626.497,642.655 629.691,641.002C629.971,640.748 630.357,640.893 630.847,641.436C631.338,641.979 631.443,642.442 631.162,642.823C626.131,647.038 621.034,650.043 615.872,651.839C610.709,653.634 605.314,654.532 599.687,654.532ZM571.24,604.222L571.03,601.332L618.098,600.569L618.098,604.031L571.24,604.222Z" style="fill:rgb(61,53,48);fill-rule:nonzero;"/>
                <path d="M704.505,652.244C704.084,652.244 703.874,651.862 703.874,651.1C703.874,650.337 704.084,649.956 704.505,649.956C709.619,649.956 712.986,649.087 714.605,647.349C716.224,645.611 717.034,642.094 717.034,636.799L717.034,606.927C717.034,599.574 715.532,594.175 712.529,590.73C709.527,587.285 704.813,585.562 698.39,585.562C693.569,585.562 688.643,586.865 683.613,589.471C678.583,592.077 674.351,595.662 670.918,600.227L669.982,597.938C675.812,590.742 681.771,585.328 687.859,581.696C693.947,578.064 700.326,576.248 706.997,576.248C714.767,576.248 720.77,578.281 725.004,582.346C729.238,586.411 731.356,592.183 731.356,599.663L731.356,636.799C731.356,642.094 732.161,645.611 733.773,647.349C735.384,649.087 738.786,649.956 743.98,649.956C744.4,649.956 744.61,650.337 744.61,651.1C744.61,651.862 744.4,652.244 743.98,652.244C741.407,652.244 738.415,652.18 735.003,652.053C731.59,651.926 728.007,651.862 724.252,651.862C720.561,651.862 716.99,651.926 713.539,652.053C710.089,652.18 707.077,652.244 704.505,652.244ZM647.965,652.244C647.545,652.244 647.335,651.862 647.335,651.1C647.335,650.337 647.545,649.956 647.965,649.956C653.08,649.956 656.447,649.087 658.066,647.349C659.685,645.611 660.494,642.094 660.494,636.799L660.494,599.693C660.494,595.542 659.965,592.51 658.906,590.597C657.848,588.684 656.012,587.728 653.4,587.728C652.063,587.728 650.476,587.968 648.64,588.448C646.804,588.927 644.719,589.612 642.386,590.502C641.825,590.687 641.386,590.432 641.067,589.739C640.748,589.046 640.806,588.601 641.239,588.404L667.22,577.115C667.752,576.931 668.165,576.838 668.458,576.838C669.693,576.838 671.061,578.242 672.563,581.048C674.065,583.855 674.816,587.909 674.816,593.21L674.816,636.799C674.816,642.094 675.622,645.611 677.233,647.349C678.845,649.087 682.247,649.956 687.44,649.956C687.861,649.956 688.071,650.337 688.071,651.1C688.071,651.862 687.861,652.244 687.44,652.244C684.868,652.244 681.875,652.18 678.463,652.053C675.051,651.926 671.468,651.862 667.713,651.862C664.021,651.862 660.45,651.926 657,652.053C653.549,652.18 650.538,652.244 647.965,652.244Z" style="fill:rgb(61,53,48);fill-rule:nonzero;"/>
                <path d="M814.601,653.388C814.04,653.642 813.416,653.769 812.729,653.769C810.668,653.769 808.686,652.349 806.781,649.507C804.876,646.666 803.924,642.56 803.924,637.189L803.924,602.363C803.924,594.424 802.857,588.771 800.724,585.406C798.59,582.04 795.586,580.357 791.71,580.357C788.207,580.357 785.426,581.202 783.367,582.892C781.308,584.583 779.809,586.566 778.869,588.842C777.93,591.119 777.274,593.152 776.902,594.944C776.561,597.417 775.724,599.483 774.393,601.141C773.062,602.8 770.838,603.629 767.72,603.629C764.924,603.629 762.89,603 761.618,601.742C760.346,600.483 759.71,599.047 759.71,597.432C759.71,594.872 761.082,592.364 763.825,589.91C766.568,587.456 770.04,585.233 774.241,583.241C778.441,581.249 782.816,579.666 787.365,578.493C791.915,577.32 796.005,576.734 799.635,576.734C805.38,576.734 809.899,578.404 813.192,581.744C816.485,585.084 818.131,590.05 818.131,596.642L818.131,631.65C818.131,635.825 818.79,638.948 820.106,641.017C821.423,643.087 823.491,644.122 826.309,644.122C828.656,644.122 831.689,643.397 835.409,641.947C836.046,641.693 836.52,641.915 836.832,642.614C837.144,643.314 836.95,643.79 836.25,644.044L814.601,653.388ZM775.979,653.578C770.353,653.578 766.11,652.304 763.252,649.756C760.394,647.208 758.964,644.045 758.964,640.27C758.964,637.193 759.859,634.595 761.649,632.475C763.439,630.356 766.077,628.472 769.562,626.822C773.048,625.172 777.233,623.543 782.117,621.934L806.026,613.83L806.633,616.482L787.602,623.433C785.478,624.164 783.52,625.047 781.727,626.083C779.934,627.119 778.504,628.361 777.439,629.81C776.374,631.259 775.842,633.027 775.842,635.112C775.842,638.137 776.936,640.637 779.126,642.61C781.315,644.583 784.024,645.57 787.254,645.57C788.607,645.57 789.982,645.39 791.38,645.031C792.778,644.671 794.447,643.942 796.387,642.844L808.863,635.836L809.188,638.467L793.898,647.685C790.583,649.777 787.563,651.282 784.838,652.201C782.114,653.119 779.161,653.578 775.979,653.578Z" style="fill:rgb(61,53,48);fill-rule:nonzero;"/>
                <path d="M875.753,654.532C872.39,654.532 869.107,654.041 865.905,653.059C862.703,652.076 860.082,650.401 858.04,648.034C855.998,645.666 854.978,642.404 854.978,638.247L854.978,594.238C854.978,591.288 854.704,589.069 854.157,587.579C853.609,586.089 852.565,585.079 851.023,584.548C849.482,584.016 847.188,583.751 844.14,583.751C843.658,583.751 843.417,583.283 843.417,582.349C843.417,581.414 843.658,580.947 844.14,580.947C850.286,580.834 855.273,579.457 859.101,576.816C862.929,574.175 865.348,570.592 866.357,566.065C866.484,565.626 867.041,565.406 868.029,565.406C869.016,565.406 869.51,565.626 869.51,566.065L869.51,631.85C869.51,637.076 870.946,640.891 873.819,643.297C876.691,645.702 880.614,646.905 885.589,646.905C889.12,646.905 892.322,646.336 895.195,645.197C898.067,644.059 900.446,642.827 902.331,641.5C902.828,641.188 903.334,641.318 903.848,641.89C904.363,642.462 904.34,642.939 903.779,643.32C898.595,647.255 893.836,650.108 889.503,651.877C885.171,653.647 880.587,654.532 875.753,654.532ZM897.382,588.05C891.79,586.836 886.413,586.042 881.249,585.668C876.085,585.293 870.607,585.106 864.813,585.106L864.813,580.673C870.403,580.673 875.85,580.482 881.154,580.101C886.457,579.719 892.108,579.274 898.105,578.766C898.464,578.766 898.799,579.207 899.109,580.09C899.42,580.973 899.576,582.021 899.576,583.235C899.576,584.298 899.35,585.398 898.899,586.535C898.448,587.672 897.943,588.177 897.382,588.05Z" style="fill:rgb(61,53,48);fill-rule:nonzero;"/>
                <path d="M954.551,654.532C945.905,654.532 938.625,652.798 932.713,649.331C926.8,645.864 922.332,641.32 919.309,635.698C916.285,630.076 914.773,624.092 914.773,617.748C914.773,610.109 916.767,603.221 920.754,597.085C924.741,590.948 930.172,586.054 937.048,582.402C943.924,578.751 951.6,576.925 960.078,576.925C968.192,576.925 974.447,578.781 978.843,582.493C983.24,586.206 985.438,591.624 985.438,598.749C985.438,600.401 985.278,601.695 984.96,602.629C984.641,603.564 983.992,604.031 983.011,604.031L968.495,604.031C969.007,596.436 967.909,590.655 965.201,586.688C962.493,582.722 958.354,580.738 952.784,580.738C945.946,580.738 940.592,583.397 936.721,588.714C932.85,594.031 930.915,601.222 930.915,610.285C930.915,617.517 932.176,623.89 934.698,629.404C937.22,634.918 940.934,639.224 945.838,642.322C950.742,645.421 956.729,646.97 963.799,646.97C968.388,646.97 972.196,646.389 975.222,645.226C978.249,644.063 981.36,642.655 984.554,641.002C984.835,640.748 985.22,640.893 985.71,641.436C986.201,641.979 986.306,642.442 986.026,642.823C980.994,647.038 975.897,650.043 970.735,651.839C965.572,653.634 960.177,654.532 954.551,654.532ZM926.104,604.222L925.893,601.332L972.961,600.569L972.961,604.031L926.104,604.222Z" style="fill:rgb(61,53,48);fill-rule:nonzero;"/>
            </g>
            <g transform="matrix(0.601902,0,0,0.183545,607.099298,456.069664)">
                <path d="M104.866,454.749C102.807,454.749 99.441,446.735 94.768,430.708C90.094,414.681 84.47,391.651 77.895,361.619C71.32,331.586 63.942,295.871 55.761,254.473L68.773,241.389C79.429,291.987 88.493,332.377 95.967,362.56C103.441,392.742 110.062,414.398 115.832,427.528C121.601,440.657 127.15,447.222 132.479,447.222C132.805,447.222 132.968,448.477 132.968,450.986C132.968,453.495 132.805,454.749 132.479,454.749L104.866,454.749ZM58.756,60.842C69.47,60.842 77.676,68.248 83.374,83.06C89.073,97.872 91.922,117.709 91.922,142.57C91.922,165.863 89.882,186.735 85.802,205.186C81.721,223.637 76.387,238.09 69.799,248.544C63.21,258.998 56.095,264.225 48.451,264.225C47.012,264.225 45.453,264.111 43.774,263.882C42.095,263.653 40.558,263.33 39.163,262.912L39.163,403.943C39.163,416.069 39.518,425.269 40.229,431.541C40.939,437.814 42.412,441.995 44.648,444.086C46.884,446.177 50.23,447.222 54.688,447.222C55.013,447.222 55.176,448.477 55.176,450.986C55.176,453.495 55.013,454.749 54.688,454.749C51.501,454.749 47.985,454.54 44.138,454.122C40.292,453.704 36.043,453.495 31.391,453.495C27.068,453.495 22.915,453.704 18.934,454.122C14.952,454.54 11.369,454.749 8.185,454.749C7.871,454.749 7.714,453.495 7.714,450.986C7.714,448.477 7.871,447.222 8.185,447.222C12.642,447.222 15.989,446.177 18.225,444.086C20.46,441.995 21.982,437.814 22.791,431.541C23.599,425.269 24.004,416.069 24.004,403.943L24.004,113.53C24.004,101.404 23.631,92.309 22.887,86.246C22.142,80.182 20.67,76.001 18.469,73.701C16.268,71.401 12.939,70.251 8.482,70.251C8.156,70.251 7.993,68.996 7.993,66.487C7.993,63.978 8.156,62.724 8.482,62.724C11.596,62.724 15.112,63.038 19.03,63.665C22.947,64.292 27.068,64.606 31.391,64.606C35.473,64.606 40.093,63.978 45.252,62.724C50.411,61.47 54.912,60.842 58.756,60.842ZM76.17,162.612C76.17,139.091 75.209,120.734 73.287,107.542C71.365,94.351 68.656,85.004 65.16,79.503C61.664,74.001 57.521,71.251 52.73,71.251C47.895,71.251 44.425,74.158 42.32,79.973C40.215,85.788 39.163,97.392 39.163,114.785L39.163,247.074C40.954,247.675 42.891,248.185 44.973,248.603C47.056,249.021 48.9,249.23 50.505,249.23C59.951,249.23 66.59,242.033 70.422,227.639C74.254,213.245 76.17,191.57 76.17,162.612Z" style="fill:rgb(61,53,48);fill-rule:nonzero;"/>
                <path d="M170.193,462.276C162.3,462.276 155.654,456.574 150.257,445.169C144.859,433.764 140.78,418.815 138.019,400.321C135.259,381.828 133.879,362.146 133.879,341.277C133.879,316.149 135.699,293.491 139.339,273.305C142.979,253.119 147.937,237.02 154.214,225.008C160.492,212.995 167.5,206.989 175.239,206.989C182.647,206.989 188.358,213.095 192.371,225.307C196.385,237.518 198.392,255.342 198.392,278.779C198.392,284.215 198.246,288.47 197.955,291.544C197.665,294.618 197.071,296.155 196.176,296.155L182.924,296.155C183.391,271.17 182.389,252.154 179.917,239.106C177.444,226.058 173.665,219.534 168.58,219.534C162.338,219.534 157.45,228.279 153.916,245.77C150.382,263.261 148.615,286.913 148.615,316.727C148.615,340.516 149.766,361.48 152.069,379.617C154.372,397.755 157.762,411.92 162.239,422.113C166.716,432.306 172.182,437.402 178.636,437.402C182.826,437.402 186.302,435.489 189.066,431.664C191.829,427.838 194.669,423.207 197.585,417.771C197.841,416.935 198.193,417.41 198.64,419.197C199.088,420.984 199.184,422.505 198.928,423.76C194.335,437.624 189.682,447.51 184.969,453.416C180.255,459.323 175.33,462.276 170.193,462.276ZM144.223,296.783L144.031,287.276L187.001,284.767L187.001,296.155L144.223,296.783Z" style="fill:rgb(61,53,48);fill-rule:nonzero;"/>
                <path d="M211.861,454.749C211.419,454.749 211.198,453.495 211.198,450.986C211.198,448.477 211.419,447.222 211.861,447.222C217.144,447.222 220.577,444.504 222.16,439.068C223.743,433.632 224.534,421.924 224.534,403.943L224.534,262.814C224.534,252.922 224.203,245.666 223.542,241.046C222.88,236.427 221.601,233.386 219.704,231.922C217.807,230.458 214.937,229.727 211.093,229.727C210.709,229.727 210.518,228.19 210.518,225.116C210.518,222.041 210.709,220.504 211.093,220.504C216.204,220.504 219.644,218.461 221.413,214.374C223.182,210.287 224.131,203.017 224.258,192.563C224.826,146.147 227.029,108.826 230.867,80.6C234.704,52.375 240.018,31.78 246.808,18.817C253.598,5.854 261.595,-0.627 270.8,-0.627C278.571,-0.627 284.743,3.994 289.317,13.236C293.89,22.478 296.177,33.727 296.177,46.984C296.177,53.361 295.568,58.588 294.349,62.665C293.131,66.742 291.415,68.781 289.2,68.781C286.437,68.781 284.383,65.873 283.037,60.058C281.691,54.243 280.396,47.442 279.151,39.653C277.907,31.865 276.217,25.065 274.08,19.253C271.943,13.442 268.732,10.536 264.447,10.536C259.509,10.536 254.993,16.354 250.896,27.991C246.8,39.627 243.579,57.838 241.234,82.624C238.89,107.41 237.717,139.665 237.717,179.391L237.717,403.943C237.717,416.069 238.119,425.269 238.921,431.541C239.724,437.814 241.446,441.995 244.089,444.086C246.731,446.177 250.723,447.222 256.064,447.222C256.433,447.222 256.618,448.477 256.618,450.986C256.618,453.495 256.433,454.749 256.064,454.749C251.726,454.749 247.52,454.54 243.446,454.122C239.371,453.704 235.201,453.495 230.935,453.495C227.436,453.495 224.033,453.704 220.727,454.122C217.42,454.54 214.465,454.749 211.861,454.749ZM260.678,244.624C255.899,240.168 251.326,236.979 246.961,235.058C242.596,233.137 237.995,232.177 233.16,232.177L233.16,219.318C237.811,219.318 242.398,218.691 246.919,217.437C251.44,216.182 256.218,214.719 261.253,213.046C261.637,213.046 261.957,214.614 262.213,217.75C262.469,220.887 262.597,224.336 262.597,228.1C262.597,232.281 262.355,236.185 261.873,239.812C261.39,243.438 260.992,245.042 260.678,244.624ZM272.881,454.749C272.555,454.749 272.392,453.495 272.392,450.986C272.392,448.477 272.555,447.222 272.881,447.222C277.55,447.222 280.637,444.364 282.144,438.647C283.65,432.93 284.403,421.362 284.403,403.943L284.403,288.217C284.403,266.767 283.419,253.637 281.452,248.828C279.486,244.019 275.727,245.953 270.176,254.63C269.664,255.048 269.249,254.06 268.929,251.665C268.609,249.271 268.647,247.75 269.043,247.103L295.274,206.989C295.844,205.963 296.418,206.313 296.997,208.038C297.575,209.763 297.865,211.442 297.865,213.075C297.865,216.943 297.786,225.133 297.629,237.646C297.472,250.158 297.394,266.711 297.394,287.305L297.394,403.943C297.394,421.362 298.147,432.93 299.653,438.647C301.159,444.364 304.283,447.222 309.024,447.222C309.394,447.222 309.579,448.477 309.579,450.986C309.579,453.495 309.394,454.749 309.024,454.749C306.605,454.749 303.871,454.54 300.819,454.122C297.768,453.704 294.494,453.495 290.996,453.495C287.568,453.495 284.279,453.704 281.129,454.122C277.979,454.54 275.229,454.749 272.881,454.749Z" style="fill:rgb(61,53,48);fill-rule:nonzero;"/>
                <path d="M375.05,454.749C374.666,454.749 374.474,453.495 374.474,450.986C374.474,448.477 374.666,447.222 375.05,447.222C379.719,447.222 382.793,444.364 384.271,438.647C385.749,432.93 386.488,421.362 386.488,403.943L386.488,305.682C386.488,281.494 385.117,263.733 382.376,252.4C379.634,241.068 375.331,235.401 369.467,235.401C365.066,235.401 360.569,239.687 355.976,248.26C351.384,256.832 347.521,268.625 344.387,283.64L343.532,276.113C348.855,252.441 354.295,234.632 359.853,222.685C365.411,210.738 371.235,204.765 377.325,204.765C384.419,204.765 389.899,211.45 393.764,224.821C397.63,238.193 399.563,257.182 399.563,281.788L399.563,403.943C399.563,421.362 400.299,432.93 401.77,438.647C403.241,444.364 406.347,447.222 411.088,447.222C411.472,447.222 411.664,448.477 411.664,450.986C411.664,453.495 411.472,454.749 411.088,454.749C408.74,454.749 406.008,454.54 402.893,454.122C399.777,453.704 396.506,453.495 393.078,453.495C389.708,453.495 386.448,453.704 383.298,454.122C380.148,454.54 377.398,454.749 375.05,454.749ZM323.432,454.749C323.049,454.749 322.857,453.495 322.857,450.986C322.857,448.477 323.049,447.222 323.432,447.222C328.102,447.222 331.175,444.364 332.653,438.647C334.131,432.93 334.87,421.362 334.87,403.943L334.87,281.886C334.87,268.23 334.387,258.256 333.421,251.964C332.454,245.672 330.779,242.526 328.394,242.526C327.173,242.526 325.724,243.315 324.048,244.893C322.372,246.471 320.469,248.724 318.338,251.651C317.827,252.258 317.425,251.422 317.135,249.142C316.844,246.861 316.896,245.398 317.292,244.751L341.011,207.616C341.497,207.009 341.873,206.705 342.141,206.705C343.269,206.705 344.518,211.321 345.889,220.553C347.26,229.786 347.946,243.121 347.946,260.559L347.946,403.943C347.946,421.362 348.681,432.93 350.152,438.647C351.624,444.364 354.73,447.222 359.471,447.222C359.855,447.222 360.047,448.477 360.047,450.986C360.047,453.495 359.855,454.749 359.471,454.749C357.122,454.749 354.39,454.54 351.275,454.122C348.16,453.704 344.889,453.495 341.461,453.495C338.091,453.495 334.831,453.704 331.68,454.122C328.53,454.54 325.781,454.749 323.432,454.749Z" style="fill:rgb(61,53,48);fill-rule:nonzero;"/>
                <path d="M457.965,462.276C450.071,462.276 443.426,456.574 438.028,445.169C432.63,433.764 428.551,418.815 425.791,400.321C423.031,381.828 421.65,362.146 421.65,341.277C421.65,316.149 423.47,293.491 427.11,273.305C430.75,253.119 435.708,237.02 441.986,225.008C448.263,212.995 455.271,206.989 463.011,206.989C470.418,206.989 476.129,213.095 480.143,225.307C484.156,237.518 486.163,255.342 486.163,278.779C486.163,284.215 486.018,288.47 485.727,291.544C485.436,294.618 484.843,296.155 483.947,296.155L470.695,296.155C471.163,271.17 470.161,252.154 467.688,239.106C465.215,226.058 461.437,219.534 456.352,219.534C450.109,219.534 445.221,228.279 441.687,245.77C438.154,263.261 436.387,286.913 436.387,316.727C436.387,340.516 437.538,361.48 439.841,379.617C442.143,397.755 445.533,411.92 450.01,422.113C454.488,432.306 459.954,437.402 466.408,437.402C470.597,437.402 474.074,435.489 476.837,431.664C479.6,427.838 482.44,423.207 485.356,417.771C485.612,416.935 485.964,417.41 486.412,419.197C486.86,420.984 486.956,422.505 486.7,423.76C482.106,437.624 477.453,447.51 472.74,453.416C468.027,459.323 463.102,462.276 457.965,462.276ZM431.994,296.783L431.802,287.276L474.773,284.767L474.773,296.155L431.994,296.783Z" style="fill:rgb(61,53,48);fill-rule:nonzero;"/>
            </g>
            <g transform="matrix(0.803935,0,0,1.038286,104.686247,-81.556532)">
                <path d="M496.353,609.163C488.81,609.163 482.079,608.012 476.159,605.709C470.238,603.407 465.314,600.284 461.386,596.339C457.458,592.395 454.772,587.952 453.328,583.01C451.884,578.068 451.867,573.004 453.278,567.82C454.755,562.593 457.577,557.983 461.743,553.992C465.908,550 470.876,546.864 476.645,544.583C482.414,542.302 488.312,541.161 494.338,541.161C497.472,541.161 500.477,541.488 503.353,542.141C506.228,542.795 508.796,543.922 511.055,545.523L499.383,553.898C497.567,550.345 495.268,547.994 492.488,546.846C489.708,545.698 487.135,545.124 484.771,545.124C481.613,545.124 478.747,545.956 476.173,547.619C473.599,549.282 471.428,551.481 469.662,554.216C467.896,556.95 466.569,559.964 465.682,563.258C464.37,569.151 464.52,574.517 466.134,579.357C467.747,584.196 470.369,588.363 473.998,591.855C477.628,595.348 481.938,598.042 486.928,599.936C491.918,601.83 497.168,602.777 502.679,602.777C510.185,602.777 516.974,601.267 523.048,598.247C529.121,595.227 534.05,590.796 537.833,584.953C541.617,579.11 543.727,571.926 544.164,563.401L547.619,564.256C546.689,574.203 543.902,582.513 539.256,589.187C534.61,595.86 528.593,600.858 521.205,604.18C513.817,607.502 505.532,609.163 496.353,609.163ZM461.157,579.831L459.079,578.227C463.235,575.504 467.966,572.537 473.274,569.327C478.581,566.117 483.978,562.78 489.464,559.317C494.949,555.853 500.001,552.363 504.618,548.846C509.236,545.33 512.975,541.88 515.835,538.496C518.695,535.112 520.126,531.907 520.126,528.879C520.126,526.988 519.707,525.555 518.869,524.578C518.031,523.602 517.07,522.826 515.987,522.251C514.904,521.675 513.943,521.017 513.107,520.276C512.27,519.535 511.851,518.428 511.851,516.955C511.851,515.291 512.493,513.964 513.776,512.973C515.059,511.982 516.717,511.486 518.749,511.486C521.822,511.486 524.22,512.483 525.944,514.476C527.668,516.47 528.53,519.078 528.53,522.301C528.53,526.549 527.07,530.727 524.152,534.835C521.233,538.943 517.357,542.971 512.524,546.92C507.69,550.87 502.312,554.735 496.389,558.515C490.466,562.295 484.448,565.96 478.338,569.51C472.227,573.06 466.5,576.5 461.157,579.831ZM511.277,575.568C509.88,575.568 508.626,575.216 507.515,574.513C506.404,573.81 505.848,572.543 505.848,570.714C505.848,568.072 506.941,565.567 509.127,563.198C511.312,560.83 514.138,558.897 517.605,557.4C521.071,555.903 524.633,555.155 528.29,555.155C531.602,555.155 535.009,555.701 538.513,556.794C542.017,557.887 545.52,559.157 549.023,560.603C552.525,562.049 555.895,563.319 559.131,564.412C562.368,565.505 565.34,566.052 568.049,566.052C569.717,566.052 571.041,565.801 572.019,565.3C572.998,564.799 573.487,564.173 573.487,563.423C573.487,562.514 573.113,561.725 572.365,561.055C571.618,560.385 570.853,559.649 570.071,558.846C569.289,558.042 568.898,557.08 568.898,555.959C568.898,554.829 569.364,553.962 570.298,553.358C571.231,552.754 572.54,552.453 574.226,552.453C575.68,552.453 576.918,552.767 577.94,553.397C578.962,554.027 579.473,555.304 579.473,557.228C579.473,559.68 578.578,562.101 576.79,564.491C575.001,566.881 572.62,568.859 569.647,570.425C566.673,571.991 563.419,572.774 559.885,572.774C556.694,572.774 553.348,572.193 549.845,571.031C546.342,569.869 542.775,568.517 539.142,566.975C535.509,565.433 531.955,564.081 528.479,562.92C525.004,561.758 521.726,561.178 518.648,561.178C516.689,561.178 515.217,561.476 514.232,562.072C513.247,562.668 512.754,563.368 512.754,564.172C512.754,565.122 513.053,566.001 513.651,566.809C514.248,567.617 514.845,568.425 515.443,569.233C516.04,570.04 516.339,570.914 516.339,571.854C516.339,572.649 515.979,573.466 515.258,574.307C514.538,575.147 513.21,575.568 511.277,575.568Z" style="fill:rgb(176,141,87);fill-rule:nonzero;"/>
            </g>
        </g>
    </g>
</svg>
