<svg xmlns="http://www.w3.org/2000/svg" version="1.1" xmlns:xlink="http://www.w3.org/1999/xlink" width="1000" height="1000"><metadata><rdf:RDF xmlns:rdf="http://www.w3.org/1999/02/22-rdf-syntax-ns#" xmlns:dc="http://purl.org/dc/elements/1.1/"><rdf:Description><dc:creator>RealFaviconGenerator</dc:creator><dc:source>https://realfavicongenerator.net</dc:source></rdf:Description></rdf:RDF></metadata><g clip-path="url(#SvgjsClipPath1050)"><rect width="1000" height="1000" fill="#ffffff"></rect><g transform="matrix(1.953125,0,0,1.953125,0,0)"><svg xmlns="http://www.w3.org/2000/svg" version="1" xmlns:xlink="http://www.w3.org/1999/xlink" width="512" zoomAndPan="magnify" viewBox="0 0 384 383.999986" height="512" preserveAspectRatio="xMidYMid meet"><defs><clipPath id="e893b86d41"><path d="M 2 0 L 381.558594 0 L 381.558594 378 L 2 378 Z M 2 0 " clip-rule="nonzero"></path></clipPath><clipPath id="389f693a00"><path d="M 256.800781 11.398438 C 277.445312 18.941406 296.625 30.003906 313.492188 44.09375 L 313.5 44.101562 C 330.367188 58.191406 344.625 75.140625 355.613281 94.175781 L 356.003906 94.855469 C 366.980469 113.871094 374.53125 134.667969 378.300781 156.300781 C 382.070312 177.9375 382.089844 200.066406 378.351562 221.707031 L 378.273438 222.144531 C 374.523438 243.871094 366.910156 264.753906 355.800781 283.800781 L 355.742188 283.898438 C 344.664062 302.890625 330.371094 319.808594 313.5 333.898438 L 313.492188 333.90625 C 296.625 347.996094 277.445312 359.058594 256.800781 366.601562 C 236.160156 374.140625 214.355469 378 192.382812 378 L 191.617188 378 C 169.644531 378 147.839844 374.140625 127.199219 366.601562 C 106.554688 359.058594 87.375 347.996094 70.507812 333.90625 L 70.5 333.898438 C 53.628906 319.808594 39.335938 302.890625 28.257812 283.898438 L 28.199219 283.800781 C 17.089844 264.753906 9.476562 243.871094 5.726562 222.144531 L 5.648438 221.707031 C 1.910156 200.066406 1.929688 177.9375 5.699219 156.300781 C 9.46875 134.667969 17.019531 113.871094 27.996094 94.855469 L 28.386719 94.175781 C 39.375 75.140625 53.632812 58.191406 70.5 44.101562 L 70.507812 44.09375 C 87.375 30.003906 106.554688 18.941406 127.199219 11.398438 C 147.839844 3.859375 169.644531 0 191.617188 0 L 192.382812 0 C 214.355469 0 236.160156 3.859375 256.800781 11.398438 Z M 256.800781 11.398438 " clip-rule="nonzero"></path></clipPath><clipPath id="2ae2244d35"><path d="M 0 0 L 379.558594 0 L 379.558594 378 L 0 378 Z M 0 0 " clip-rule="nonzero"></path></clipPath><clipPath id="20f758a8b8"><path d="M 254.800781 11.398438 C 275.445312 18.941406 294.625 30.003906 311.492188 44.09375 L 311.5 44.101562 C 328.367188 58.191406 342.625 75.140625 353.613281 94.175781 L 354.003906 94.855469 C 364.980469 113.871094 372.53125 134.667969 376.300781 156.300781 C 380.070312 177.9375 380.089844 200.066406 376.351562 221.707031 L 376.273438 222.144531 C 372.523438 243.871094 364.910156 264.753906 353.800781 283.800781 L 353.742188 283.898438 C 342.664062 302.890625 328.371094 319.808594 311.5 333.898438 L 311.492188 333.90625 C 294.625 347.996094 275.445312 359.058594 254.800781 366.601562 C 234.160156 374.140625 212.355469 378 190.382812 378 L 189.617188 378 C 167.644531 378 145.839844 374.140625 125.199219 366.601562 C 104.554688 359.058594 85.375 347.996094 68.507812 333.90625 L 68.5 333.898438 C 51.628906 319.808594 37.335938 302.890625 26.257812 283.898438 L 26.199219 283.800781 C 15.089844 264.753906 7.476562 243.871094 3.726562 222.144531 L 3.648438 221.707031 C -0.0898438 200.066406 -0.0703125 177.9375 3.699219 156.300781 C 7.46875 134.667969 15.019531 113.871094 25.996094 94.855469 L 26.386719 94.175781 C 37.375 75.140625 51.632812 58.191406 68.5 44.101562 L 68.507812 44.09375 C 85.375 30.003906 104.554688 18.941406 125.199219 11.398438 C 145.839844 3.859375 167.644531 0 189.617188 0 L 190.382812 0 C 212.355469 0 234.160156 3.859375 254.800781 11.398438 Z M 254.800781 11.398438 " clip-rule="nonzero"></path></clipPath><clipPath id="12dfbe580d"><rect x="0" width="380" y="0" height="378"></rect></clipPath><clipPath id="bb1b4d9271"><path d="M 267 155 L 345.898438 155 L 345.898438 230 L 267 230 Z M 267 155 " clip-rule="nonzero"></path></clipPath><clipPath id="3c88c6131a"><path d="M 38.398438 155 L 117 155 L 117 230 L 38.398438 230 Z M 38.398438 155 " clip-rule="nonzero"></path></clipPath><clipPath id="ba98ff8362"><path d="M 139 140.542969 L 245 140.542969 L 245 243.292969 L 139 243.292969 Z M 139 140.542969 " clip-rule="nonzero"></path></clipPath><clipPath id="SvgjsClipPath1050"><rect width="1000" height="1000" x="0" y="0" rx="150" ry="150"></rect></clipPath></defs><g clip-path="url(#e893b86d41)"><g clip-path="url(#389f693a00)"><g transform="matrix(1, 0, 0, 1, 2, 0)"><g clip-path="url(#12dfbe580d)"><g clip-path="url(#2ae2244d35)"><g clip-path="url(#20f758a8b8)"><rect x="-86.48" width="552.96" fill="#fdfbf7" height="552.959979" y="-84.479997" fill-opacity="1"></rect></g></g></g></g></g></g><g clip-path="url(#bb1b4d9271)"><path fill="#3d3530" d="M 328.378906 229.429688 C 327.097656 229.429688 325 227.929688 322.085938 224.9375 C 319.175781 221.945312 315.671875 217.644531 311.574219 212.035156 C 307.476562 206.429688 302.882812 199.757812 297.785156 192.027344 L 305.890625 189.585938 C 312.53125 199.035156 318.179688 206.574219 322.835938 212.210938 C 327.492188 217.847656 331.617188 221.894531 335.210938 224.34375 C 338.804688 226.796875 342.261719 228.023438 345.582031 228.023438 C 345.785156 228.023438 345.886719 228.257812 345.886719 228.726562 C 345.886719 229.195312 345.785156 229.429688 345.582031 229.429688 Z M 299.648438 155.867188 C 306.324219 155.867188 311.4375 157.25 314.988281 160.019531 C 318.539062 162.785156 320.316406 166.488281 320.316406 171.128906 C 320.316406 175.480469 319.042969 179.378906 316.5 182.824219 C 313.957031 186.269531 310.636719 188.96875 306.53125 190.921875 C 302.425781 192.871094 297.992188 193.847656 293.230469 193.847656 C 292.332031 193.847656 291.363281 193.828125 290.316406 193.785156 C 289.269531 193.742188 288.3125 193.683594 287.441406 193.605469 L 287.441406 219.941406 C 287.441406 222.203125 287.664062 223.921875 288.105469 225.09375 C 288.550781 226.265625 289.46875 227.046875 290.859375 227.4375 C 292.253906 227.828125 294.339844 228.023438 297.117188 228.023438 C 297.316406 228.023438 297.417969 228.257812 297.417969 228.726562 C 297.417969 229.195312 297.316406 229.429688 297.117188 229.429688 C 295.128906 229.429688 292.941406 229.390625 290.542969 229.3125 C 288.144531 229.234375 285.5 229.195312 282.601562 229.195312 C 279.90625 229.195312 277.320312 229.234375 274.839844 229.3125 C 272.359375 229.390625 270.125 229.429688 268.140625 229.429688 C 267.945312 229.429688 267.847656 229.195312 267.847656 228.726562 C 267.847656 228.257812 267.945312 228.023438 268.140625 228.023438 C 270.917969 228.023438 273.003906 227.828125 274.398438 227.4375 C 275.789062 227.046875 276.738281 226.265625 277.242188 225.09375 C 277.746094 223.921875 277.996094 222.203125 277.996094 219.941406 L 277.996094 165.707031 C 277.996094 163.445312 277.765625 161.746094 277.300781 160.613281 C 276.839844 159.480469 275.921875 158.699219 274.550781 158.269531 C 273.179688 157.839844 271.105469 157.625 268.328125 157.625 C 268.125 157.625 268.023438 157.390625 268.023438 156.921875 C 268.023438 156.453125 268.125 156.21875 268.328125 156.21875 C 270.265625 156.21875 272.457031 156.277344 274.898438 156.394531 C 277.339844 156.511719 279.90625 156.570312 282.601562 156.570312 C 285.144531 156.570312 288.023438 156.453125 291.238281 156.21875 C 294.449219 155.984375 297.253906 155.867188 299.648438 155.867188 Z M 310.5 174.875 C 310.5 170.480469 309.902344 167.054688 308.703125 164.589844 C 307.507812 162.125 305.820312 160.378906 303.640625 159.351562 C 301.460938 158.328125 298.882812 157.8125 295.894531 157.8125 C 292.882812 157.8125 290.722656 158.355469 289.410156 159.441406 C 288.097656 160.527344 287.441406 162.695312 287.441406 165.941406 L 287.441406 190.644531 C 288.558594 190.757812 289.765625 190.855469 291.0625 190.933594 C 292.359375 191.011719 293.507812 191.046875 294.507812 191.046875 C 300.394531 191.046875 304.53125 189.703125 306.917969 187.015625 C 309.304688 184.328125 310.5 180.28125 310.5 174.875 Z M 310.5 174.875 " fill-opacity="1" fill-rule="nonzero"></path></g><g clip-path="url(#3c88c6131a)"><path fill="#3d3530" d="M 98.941406 229.429688 C 97.660156 229.429688 95.5625 227.929688 92.652344 224.9375 C 89.738281 221.945312 86.234375 217.644531 82.136719 212.035156 C 78.042969 206.429688 73.445312 199.757812 68.347656 192.027344 L 76.453125 189.585938 C 83.09375 199.035156 88.742188 206.574219 93.398438 212.210938 C 98.054688 217.847656 102.179688 221.894531 105.773438 224.34375 C 109.371094 226.796875 112.828125 228.023438 116.148438 228.023438 C 116.351562 228.023438 116.453125 228.257812 116.453125 228.726562 C 116.453125 229.195312 116.351562 229.429688 116.148438 229.429688 Z M 70.214844 155.867188 C 76.890625 155.867188 82.003906 157.25 85.550781 160.019531 C 89.101562 162.785156 90.878906 166.488281 90.878906 171.128906 C 90.878906 175.480469 89.605469 179.378906 87.066406 182.824219 C 84.523438 186.269531 81.199219 188.96875 77.09375 190.921875 C 72.988281 192.871094 68.554688 193.847656 63.792969 193.847656 C 62.898438 193.847656 61.925781 193.828125 60.878906 193.785156 C 59.832031 193.742188 58.875 193.683594 58.007812 193.605469 L 58.007812 219.941406 C 58.007812 222.203125 58.226562 223.921875 58.671875 225.09375 C 59.113281 226.265625 60.03125 227.046875 61.425781 227.4375 C 62.816406 227.828125 64.902344 228.023438 67.679688 228.023438 C 67.882812 228.023438 67.984375 228.257812 67.984375 228.726562 C 67.984375 229.195312 67.882812 229.429688 67.679688 229.429688 C 65.695312 229.429688 63.503906 229.390625 61.105469 229.3125 C 58.710938 229.234375 56.0625 229.195312 53.164062 229.195312 C 50.46875 229.195312 47.882812 229.234375 45.402344 229.3125 C 42.921875 229.390625 40.6875 229.429688 38.707031 229.429688 C 38.511719 229.429688 38.410156 229.195312 38.410156 228.726562 C 38.410156 228.257812 38.511719 228.023438 38.707031 228.023438 C 41.484375 228.023438 43.566406 227.828125 44.960938 227.4375 C 46.351562 227.046875 47.300781 226.265625 47.804688 225.09375 C 48.308594 223.921875 48.5625 222.203125 48.5625 219.941406 L 48.5625 165.707031 C 48.5625 163.445312 48.328125 161.746094 47.867188 160.613281 C 47.402344 159.480469 46.484375 158.699219 45.113281 158.269531 C 43.742188 157.839844 41.667969 157.625 38.890625 157.625 C 38.6875 157.625 38.585938 157.390625 38.585938 156.921875 C 38.585938 156.453125 38.6875 156.21875 38.890625 156.21875 C 40.832031 156.21875 43.019531 156.277344 45.460938 156.394531 C 47.902344 156.511719 50.46875 156.570312 53.164062 156.570312 C 55.707031 156.570312 58.585938 156.453125 61.800781 156.21875 C 65.015625 155.984375 67.820312 155.867188 70.214844 155.867188 Z M 81.0625 174.875 C 81.0625 170.480469 80.464844 167.054688 79.265625 164.589844 C 78.070312 162.125 76.382812 160.378906 74.203125 159.351562 C 72.027344 158.328125 69.445312 157.8125 66.460938 157.8125 C 63.445312 157.8125 61.285156 158.355469 59.972656 159.441406 C 58.660156 160.527344 58.007812 162.695312 58.007812 165.941406 L 58.007812 190.644531 C 59.121094 190.757812 60.328125 190.855469 61.625 190.933594 C 62.925781 191.011719 64.074219 191.046875 65.074219 191.046875 C 70.957031 191.046875 75.09375 189.703125 77.484375 187.015625 C 79.871094 184.328125 81.0625 180.28125 81.0625 174.875 Z M 81.0625 174.875 " fill-opacity="1" fill-rule="nonzero"></path></g><g clip-path="url(#ba98ff8362)"><path fill="#b08d57" d="M 176.125 243.183594 C 169.925781 243.183594 164.394531 241.972656 159.527344 239.550781 C 154.660156 237.132812 150.617188 233.851562 147.386719 229.707031 C 144.160156 225.5625 141.953125 220.894531 140.765625 215.699219 C 139.578125 210.507812 139.5625 205.1875 140.722656 199.738281 C 141.9375 194.246094 144.257812 189.402344 147.679688 185.207031 C 151.101562 181.015625 155.1875 177.71875 159.925781 175.320312 C 164.667969 172.925781 169.515625 171.726562 174.46875 171.726562 C 177.042969 171.726562 179.515625 172.070312 181.878906 172.753906 C 184.242188 173.441406 186.351562 174.628906 188.207031 176.308594 L 178.613281 185.109375 C 177.121094 181.375 175.234375 178.90625 172.949219 177.699219 C 170.664062 176.492188 168.550781 175.890625 166.605469 175.890625 C 164.011719 175.890625 161.65625 176.765625 159.539062 178.511719 C 157.425781 180.257812 155.640625 182.570312 154.1875 185.445312 C 152.738281 188.316406 151.648438 191.484375 150.917969 194.945312 C 149.839844 201.136719 149.960938 206.777344 151.289062 211.859375 C 152.613281 216.945312 154.769531 221.324219 157.753906 224.996094 C 160.734375 228.664062 164.277344 231.496094 168.378906 233.484375 C 172.480469 235.476562 176.792969 236.472656 181.324219 236.472656 C 187.492188 236.472656 193.074219 234.882812 198.0625 231.710938 C 203.054688 228.539062 207.105469 223.882812 210.214844 217.742188 C 213.324219 211.601562 215.058594 204.054688 215.417969 195.09375 L 218.257812 195.996094 C 217.492188 206.445312 215.203125 215.179688 211.386719 222.191406 C 207.566406 229.203125 202.621094 234.453125 196.550781 237.945312 C 190.476562 241.4375 183.667969 243.183594 176.125 243.183594 Z M 147.199219 212.359375 L 145.492188 210.675781 C 148.90625 207.8125 152.792969 204.695312 157.15625 201.324219 C 161.519531 197.949219 165.953125 194.445312 170.464844 190.804688 C 174.972656 187.164062 179.121094 183.496094 182.917969 179.800781 C 186.710938 176.105469 189.785156 172.480469 192.136719 168.925781 C 194.488281 165.371094 195.664062 162 195.664062 158.820312 C 195.664062 156.832031 195.320312 155.328125 194.628906 154.300781 C 193.941406 153.273438 193.152344 152.460938 192.261719 151.855469 C 191.371094 151.25 190.582031 150.558594 189.894531 149.78125 C 189.207031 149 188.863281 147.835938 188.863281 146.289062 C 188.863281 144.542969 189.390625 143.148438 190.445312 142.105469 C 191.5 141.066406 192.859375 140.542969 194.53125 140.542969 C 197.058594 140.542969 199.027344 141.589844 200.445312 143.6875 C 201.859375 145.78125 202.570312 148.523438 202.570312 151.90625 C 202.570312 156.371094 201.371094 160.761719 198.972656 165.078125 C 196.574219 169.394531 193.386719 173.628906 189.414062 177.777344 C 185.441406 181.929688 181.023438 185.988281 176.15625 189.960938 C 171.285156 193.933594 166.339844 197.785156 161.320312 201.515625 C 156.296875 205.246094 151.589844 208.859375 147.199219 212.359375 Z M 188.390625 207.878906 C 187.242188 207.878906 186.210938 207.511719 185.296875 206.773438 C 184.386719 206.03125 183.929688 204.703125 183.929688 202.78125 C 183.929688 200.003906 184.828125 197.371094 186.625 194.882812 C 188.417969 192.394531 190.742188 190.363281 193.589844 188.789062 C 196.441406 187.214844 199.367188 186.429688 202.371094 186.429688 C 205.09375 186.429688 207.894531 187.003906 210.773438 188.152344 C 213.652344 189.300781 216.53125 190.636719 219.410156 192.15625 C 222.289062 193.675781 225.058594 195.007812 227.71875 196.15625 C 230.378906 197.308594 232.820312 197.882812 235.046875 197.882812 C 236.417969 197.882812 237.507812 197.617188 238.3125 197.089844 C 239.117188 196.5625 239.519531 195.90625 239.519531 195.117188 C 239.519531 194.164062 239.210938 193.332031 238.597656 192.628906 C 237.980469 191.925781 237.351562 191.152344 236.710938 190.308594 C 236.066406 189.464844 235.746094 188.453125 235.746094 187.277344 C 235.746094 186.085938 236.128906 185.175781 236.898438 184.542969 C 237.664062 183.910156 238.738281 183.589844 240.125 183.589844 C 241.320312 183.589844 242.335938 183.921875 243.175781 184.582031 C 244.015625 185.246094 244.4375 186.585938 244.4375 188.609375 C 244.4375 191.183594 243.703125 193.730469 242.234375 196.242188 C 240.761719 198.753906 238.804688 200.832031 236.363281 202.476562 C 233.917969 204.121094 231.242188 204.945312 228.339844 204.945312 C 225.714844 204.945312 222.964844 204.335938 220.085938 203.113281 C 217.207031 201.890625 214.277344 200.472656 211.292969 198.851562 C 208.304688 197.230469 205.382812 195.808594 202.527344 194.589844 C 199.671875 193.371094 196.976562 192.757812 194.449219 192.757812 C 192.839844 192.757812 191.628906 193.070312 190.820312 193.699219 C 190.007812 194.324219 189.605469 195.0625 189.605469 195.90625 C 189.605469 196.902344 189.851562 197.828125 190.339844 198.675781 C 190.832031 199.523438 191.324219 200.375 191.8125 201.222656 C 192.304688 202.070312 192.550781 202.992188 192.550781 203.976562 C 192.550781 204.8125 192.253906 205.671875 191.660156 206.554688 C 191.070312 207.4375 189.980469 207.878906 188.390625 207.878906 Z M 188.390625 207.878906 " fill-opacity="1" fill-rule="nonzero"></path></g></svg></g></g></svg>